<svg width="94" height="69" viewBox="0 0 94 69" fill="none" xmlns="http://www.w3.org/2000/svg">
<g clip-path="url(#clip0_47_151)">
<mask id="mask0_47_151" style="mask-type:luminance" maskUnits="userSpaceOnUse" x="0" y="0" width="94" height="69">
<path d="M94 0H0V69H94V0Z" fill="white"/>
</mask>
<g mask="url(#mask0_47_151)">
<path d="M93.8641 25.7267L76.1354 12.618C75.1429 11.8818 74.1301 10.9274 73.0424 9.90487C71.4517 8.40516 69.8067 6.85774 68.1276 5.95792C64.7763 4.15828 61.6493 3.5993 57.693 3.2789C56.2858 3.16302 54.8651 3.26527 53.4851 3.36071H53.4172C52.8733 3.40161 52.3159 3.44251 51.7653 3.46978C49.3249 3.57885 46.8573 3.41524 44.4577 3.25164C38.1901 2.83581 31.705 2.40635 25.3694 1.6156L24.8936 1.55425C23.0106 1.31566 21.0596 1.07025 19.1291 1.22022C15.8253 1.48608 12.7663 2.89034 9.79567 4.25371C8.36813 4.90813 6.88621 5.58981 5.40429 6.12834C5.39749 6.12834 5.39069 6.14197 5.3771 6.14197C3.95636 5.73978 1.54314 8.03024 0.142792 9.55039C0.00683571 9.69355 -0.033951 9.89805 0.0272292 10.0889C0.0884094 10.2798 0.251557 10.4161 0.448693 10.4434C0.734201 10.4911 1.02651 10.5116 1.32561 10.5116C1.74707 10.5116 2.14814 10.4502 2.54242 10.3684C3.58248 10.7433 4.66333 10.9342 5.84615 10.9342C7.51841 10.9342 9.21786 10.5661 10.8153 10.1912C11.4407 10.0412 12.0933 9.8776 12.6304 9.74126C14.7581 9.19592 16.9606 8.63012 19.1834 8.63012C21.3451 8.63012 23.4185 8.95733 25.3694 9.56403C24.0303 10.3343 22.6707 11.0705 21.3315 11.7931L21.2704 11.8272C20.4954 12.243 19.6933 12.6793 18.9047 13.1088C17.919 13.6541 17.0421 14.1586 16.2876 14.8743C15.7437 15.3856 15.2883 15.9855 14.8532 16.5717L14.5541 16.9671C13.5481 18.2759 12.4196 19.4962 11.196 20.6073C10.8561 20.9141 10.5094 21.2208 10.156 21.5276C8.31375 23.1432 6.40357 24.8201 5.47907 27.1037C4.85367 27.8059 4.36423 28.5489 4.09231 29.217C3.76602 30.0213 3.79321 30.6553 4.16029 30.9962C4.33024 31.1529 4.56136 31.2347 4.83327 31.2347C5.15277 31.2347 5.51985 31.1257 5.93452 30.9212C6.3152 30.7303 6.70947 30.4576 7.10374 30.1304C7.2397 30.144 7.37565 30.1577 7.50481 30.1577C7.81071 30.1577 8.10981 30.1236 8.40892 30.0622C7.92627 30.9893 7.77672 31.8483 8.26616 32.2982C8.44291 32.4618 8.66723 32.5436 8.93915 32.5436C9.65971 32.5436 10.5434 32.005 11.298 31.3643C11.5359 31.4324 11.7738 31.4665 12.0186 31.4665C12.7255 31.4665 13.3441 31.187 13.9491 30.9144C14.8396 30.5122 15.6078 29.9123 16.3555 29.326L26.4299 21.4458L26.7562 21.1867C27.4088 20.6686 28.041 20.171 28.7479 19.9188C28.4013 20.2596 28.0682 20.6141 27.7351 20.9618C27.3408 21.3844 26.8921 21.8548 26.4367 22.2774C25.553 23.1023 24.5265 23.8726 23.5204 24.6224C22.1133 25.679 20.6586 26.7697 19.5097 28.0717C18.7824 28.6034 18.1842 29.217 17.8171 29.81C17.3956 30.4985 17.3208 31.0984 17.6131 31.5074C17.8103 31.7869 18.1638 31.9369 18.6192 31.9369C18.8231 31.9369 19.0407 31.9096 19.2786 31.8551C19.7952 31.7324 20.3595 31.487 20.9237 31.1461C21.3043 31.2825 21.685 31.3643 22.0725 31.3643C23.031 31.3643 23.9011 30.9416 24.71 30.5122C25.954 29.8509 27.1369 29.0602 28.2857 28.2899C29.4413 27.5128 30.6377 26.7152 31.8953 26.0539C33.1665 25.3859 34.5329 24.8474 35.8652 24.3225L39.4477 22.9114C40.0255 22.6864 40.6237 22.4478 41.2355 22.3729C41.8201 22.3047 42.4115 22.3729 43.0709 22.4751C43.7235 22.5705 44.3761 22.6728 45.0287 22.7751C47.4963 23.1568 50.2834 23.5931 52.9957 23.5931H53.0365C55.7692 23.5863 58.23 23.0886 60.2965 22.1615C62.9613 22.7001 64.8103 24.5133 66.7816 26.647C68.9569 29.0056 80.1937 42.1553 80.7511 43.3346C80.8055 43.4505 80.9211 43.5255 81.0502 43.5255C81.0978 43.5255 81.1454 43.5119 81.193 43.4914C81.2746 43.4573 81.3289 43.3892 81.3629 43.3074C81.3901 43.2256 81.3901 43.1369 81.3493 43.0551C80.7239 41.7327 69.1269 28.2149 67.2711 26.1971C65.4085 24.1861 63.641 22.4547 61.2006 21.7116C61.7173 21.4321 62.2135 21.1322 62.669 20.7845C62.7369 20.73 62.7845 20.655 62.7981 20.5664C62.8117 20.4778 62.7913 20.3892 62.7369 20.321C62.6826 20.2528 62.6078 20.2051 62.5194 20.1915C62.431 20.1778 62.3427 20.1983 62.2747 20.2528C59.9634 21.9843 56.7685 22.9114 53.0365 22.925C52.9821 22.925 52.9277 22.925 52.8665 22.925C50.3242 22.925 47.7546 22.5228 45.2666 22.1343L44.9539 22.0866C44.3625 21.9911 43.7643 21.9025 43.1661 21.8139C42.4591 21.7116 41.8133 21.6298 41.1607 21.7116C40.4674 21.7934 39.8284 22.0457 39.2098 22.2911L35.6273 23.7021C34.2881 24.227 32.9082 24.7724 31.5962 25.4609C30.3182 26.1289 29.1082 26.947 27.9254 27.7309C26.797 28.4876 25.6277 29.2715 24.4109 29.9191C23.5136 30.3963 22.6163 30.7985 21.651 30.6417C22.324 30.1577 22.9426 29.6941 23.3233 29.2101C23.8331 28.5625 23.8671 27.9218 23.4185 27.3014C23.0378 26.7697 22.528 26.5652 21.9094 26.6947C22.5687 26.1494 23.2621 25.6313 23.9487 25.1132C24.9548 24.3634 25.988 23.5794 26.8921 22.741C27.3612 22.3047 27.7962 21.8411 28.2177 21.3912C28.8907 20.6755 29.5841 19.9392 30.3726 19.353C31.4399 18.5622 32.7111 18.0305 33.9483 17.5125C34.6688 17.2125 35.4098 16.8989 36.1168 16.5376C37.1772 15.9923 38.1765 15.3174 39.1486 14.663C39.6924 14.2949 40.2566 13.9132 40.8208 13.5655C41.3375 13.2451 41.9017 12.9179 42.4999 12.7407C43.5807 12.4203 44.7975 12.5771 45.8716 12.7134C45.96 12.7202 46.0415 12.6998 46.1163 12.6452C46.1843 12.5907 46.2319 12.5089 46.2455 12.4271C46.2591 12.3385 46.2319 12.2567 46.1775 12.1817C46.1231 12.1135 46.0483 12.0658 45.96 12.059C44.8247 11.9158 43.54 11.7522 42.3231 12.1135C41.6502 12.3112 41.0452 12.6589 40.4809 13.0065C39.9031 13.361 39.3389 13.7496 38.7815 14.1177C37.8366 14.7585 36.8577 15.4197 35.8245 15.9514C35.1447 16.2991 34.4241 16.6058 33.7239 16.8989L33.6831 16.9126C32.4188 17.4443 31.1136 17.9896 29.9851 18.8281C29.89 18.9031 29.7948 18.9781 29.7064 19.0531C28.3537 19.0667 27.3952 19.8302 26.3619 20.6482L15.9613 28.7875C15.2475 29.3465 14.5133 29.9191 13.6908 30.294C13.011 30.6008 12.474 30.8121 11.9166 30.778C11.9982 30.6962 12.0797 30.6144 12.1545 30.5326C13.5684 28.992 14.7921 27.6627 13.5684 26.5243C13.0858 26.0812 12.6032 26.0199 12.1137 26.1971C13.1334 25.0587 14.3366 24.0566 15.5194 23.075C16.845 21.9843 18.2113 20.8527 19.3262 19.5166C19.5981 19.1894 19.8564 18.8486 20.1079 18.5145L20.1351 18.4736C20.7537 17.6556 21.3383 16.8785 22.1133 16.2991C22.7115 15.8491 23.4253 15.5219 24.1118 15.2015L24.2274 15.147C28.544 13.1565 32.7518 10.8251 36.7354 8.20748C36.9869 8.04387 37.2316 7.88027 37.4899 7.79847C37.7074 7.7303 37.9454 7.70985 38.2037 7.69621C39.9235 7.58714 41.6638 7.65531 43.3836 7.8939C43.5739 7.92117 43.7303 7.79165 43.7507 7.61441C43.7643 7.52579 43.7371 7.43717 43.6895 7.36901C43.6351 7.30084 43.5603 7.25312 43.472 7.23949C41.7181 6.99408 39.9303 6.93273 38.1629 7.03498C37.8638 7.05543 37.5783 7.07588 37.2928 7.17132C36.9529 7.28039 36.6538 7.47126 36.3683 7.66213C32.4188 10.2525 28.2449 12.5702 23.9555 14.5471L23.8399 14.6017C23.1194 14.9357 22.3784 15.2765 21.7258 15.7673C20.8761 16.4081 20.2371 17.2534 19.6185 18.0714C19.3806 18.3918 19.1087 18.7531 18.8299 19.0871C17.7559 20.3755 16.4099 21.4867 15.1048 22.5637C13.3169 24.0362 11.4747 25.5563 10.2579 27.5809C10.2375 27.6218 10.2171 27.6627 10.2171 27.7104C10.0472 27.8877 9.87724 28.0717 9.7073 28.2626C9.44218 28.5557 9.19067 28.8625 8.96634 29.1761C8.60605 29.326 8.22538 29.4215 7.83111 29.4487C7.90588 29.3737 7.97386 29.3056 8.04863 29.2306C8.71482 28.5012 9.34701 27.8127 9.6869 27.1855C10.1016 26.4016 10.0268 25.7404 9.46938 25.2223C8.90516 24.7042 8.24577 24.6838 7.49801 25.1609C7.43003 25.2018 7.36206 25.2632 7.28728 25.3177C8.21858 24.0975 9.42179 23.0341 10.6046 21.9979L10.6794 21.9298C11.0057 21.6435 11.332 21.3571 11.6515 21.0708C12.9023 19.9324 14.0579 18.6781 15.0844 17.342L15.3835 16.9467C15.8049 16.3877 16.24 15.8151 16.743 15.3379C17.4432 14.6767 18.2793 14.1927 19.2242 13.6678C20.0264 13.2247 20.8353 12.7884 21.651 12.3521C25.1995 10.4434 28.8703 8.46652 31.9905 5.81477L32.0313 5.78068C32.3168 5.54209 32.5819 5.31032 32.8946 5.19443C33.1597 5.09218 33.4588 5.07855 33.7987 5.06491C36.4091 4.96266 39.0534 5.099 41.6502 5.46029C41.8405 5.48756 41.9969 5.35804 42.0173 5.1808C42.0444 5.00356 41.9153 4.83314 41.7385 4.80588C39.1078 4.43777 36.4295 4.30143 33.7783 4.40368C33.3772 4.41732 33.0238 4.44458 32.6703 4.5741C32.2556 4.73089 31.9293 5.00356 31.6098 5.27624L31.569 5.31032C29.89 6.73504 28.0478 7.96207 26.1444 9.09366C23.9623 8.34381 21.6238 7.96207 19.1698 7.96207C16.879 7.96207 14.6357 8.53468 12.4604 9.09366H12.4332C11.8554 9.25045 11.2572 9.40042 10.6726 9.53676C8.19819 10.123 5.93452 10.5593 3.67085 10.0139C4.81968 9.52312 5.71019 8.73919 6.06368 7.99615C6.3084 7.47126 6.27441 6.98045 6.0025 6.5987C7.38925 6.07381 8.75561 5.45347 10.0812 4.83996C12.9906 3.50386 15.9953 2.12004 19.1834 1.86782C21.0596 1.71785 22.9698 1.96326 24.8256 2.19503L25.2947 2.25638C31.6642 3.05395 38.1493 3.48341 44.4305 3.89924C46.8369 4.05602 49.3181 4.22644 51.7993 4.11738C52.4043 4.09011 53.0297 4.04921 53.5395 4.00831C54.8923 3.91287 56.2858 3.81743 57.6454 3.9265C61.5201 4.24008 64.5723 4.77861 67.8217 6.53053C69.426 7.38946 71.0303 8.90279 72.6006 10.3752C73.695 11.4046 74.7215 12.3726 75.7547 13.136L93.4834 26.2448C93.5378 26.2857 93.6058 26.3062 93.6805 26.3062C93.7825 26.3062 93.8845 26.2585 93.9457 26.1698C94 26.1017 94.0204 26.013 94.0068 25.9244C93.9932 25.8358 93.9457 25.7608 93.8777 25.7063L93.8641 25.7267ZM0.788583 9.82988C2.5968 7.90754 4.69052 6.27149 5.3771 6.87138C5.61502 7.07588 5.64221 7.35537 5.47227 7.7303C4.96923 8.80054 2.96388 10.0821 0.788583 9.82988ZM6.76385 29.5714C6.38997 29.8918 6.00929 30.1577 5.65581 30.3349C5.10519 30.6144 4.73811 30.6212 4.62254 30.5122C4.50018 30.4031 4.48659 30.035 4.71771 29.4624C4.97603 28.8284 5.45867 28.1058 6.09087 27.4173C6.72306 26.7288 7.32807 26.0744 7.8515 25.7336C8.10302 25.57 8.31375 25.4881 8.50409 25.4881C8.69443 25.4881 8.85078 25.5631 9.02072 25.7199C9.36061 26.0335 9.3878 26.3743 9.10909 26.8924C8.81679 27.4446 8.21178 28.099 7.56599 28.8011C7.32807 29.0602 7.07655 29.2919 6.83183 29.5101C6.80464 29.5237 6.78424 29.5442 6.77065 29.5646L6.76385 29.5714ZM10.1899 28.733C11.264 27.5605 12.0118 26.797 12.6032 26.797C12.7867 26.797 12.9634 26.872 13.1266 27.0288C13.8336 27.6832 13.0722 28.583 11.6719 30.11C10.2307 31.671 8.99353 32.0459 8.73521 31.8142C8.4769 31.5756 8.74881 30.3077 10.1899 28.733ZM21.1344 30.2259C20.4614 30.7098 19.7612 31.0575 19.1562 31.2007C18.6736 31.3165 18.2929 31.2825 18.1774 31.112C18.055 30.9416 18.1434 30.5735 18.4085 30.1509C18.7348 29.6192 19.2854 29.067 19.9584 28.583C20.6518 28.0854 21.3043 27.6082 21.8414 27.4173C22.0113 27.356 22.1541 27.3287 22.2832 27.3287C22.5415 27.3287 22.7319 27.4446 22.9154 27.6968C23.1873 28.0717 23.1669 28.3989 22.8406 28.8079C22.494 29.251 21.8414 29.7146 21.148 30.219L21.1344 30.2259Z" fill="#AE8B0D"/>
<path d="M41.5958 56.9206L39.1418 49.0198C39.1282 48.9858 39.1146 48.9585 39.0942 48.938C39.0942 48.938 39.0942 48.938 39.0942 48.9312L34.2813 43.7641C34.2269 43.7095 34.1522 43.6754 34.0774 43.6823C34.0026 43.6823 33.9346 43.7232 33.8871 43.7845L27.6195 52.2919C27.6195 52.2919 27.5991 52.326 27.5923 52.3396C27.5923 52.3396 27.5923 52.3465 27.5855 52.3533C27.5787 52.3805 27.5719 52.4078 27.5719 52.4351V65.6052C27.5719 65.7143 27.6399 65.8097 27.7418 65.8438L36.7353 68.9863C36.7625 68.9932 36.7897 69 36.8169 69C36.8441 69 36.8713 69 36.8985 68.9863C36.8985 68.9863 36.9053 68.9864 36.9121 68.9795C36.9325 68.9727 36.9529 68.9591 36.9733 68.9454C36.9801 68.9454 36.9869 68.9318 36.9937 68.925C37.0072 68.9114 37.0208 68.8909 37.0276 68.8773C37.0276 68.8705 37.0412 68.8636 37.0412 68.85C37.0412 68.85 37.0412 68.85 37.0412 68.8364L41.589 57.0842C41.6094 57.0296 41.6094 56.9683 41.589 56.9137L41.5958 56.9206ZM36.8169 68.0047L31.9769 53.962L38.6931 49.5311L40.0391 59.6814L36.8237 67.9979L36.8169 68.0047ZM34.1046 44.3299L38.5028 49.0471L31.6438 53.5735L28.2245 52.3192L34.1046 44.3299ZM28.0681 52.8032L31.4738 54.0507L36.3954 68.3251L28.0749 65.4211V52.8032H28.0681ZM40.4197 58.6929L39.536 52.0329L41.0791 56.9887L40.4197 58.6929Z" fill="#AE8B0D"/>
<path d="M34.1726 44.439C34.1182 44.439 34.0706 44.4049 34.057 44.3504C32.4595 38.8901 30.4678 33.4912 28.1497 28.2967C28.1225 28.2354 28.1497 28.1604 28.2109 28.1331C28.2721 28.1059 28.3468 28.1331 28.374 28.1945C30.6989 33.3957 32.6906 38.8083 34.2949 44.2754C34.3153 44.3367 34.2745 44.4049 34.2133 44.4254C34.1997 44.4254 34.1929 44.4254 34.1793 44.4254L34.1726 44.439Z" fill="#AE8B0D"/>
<path d="M34.7911 26.756C34.4784 26.756 34.1657 26.6265 33.9278 26.4629C33.112 25.9108 32.7313 24.9632 32.3643 24.0498L32.3031 23.9066C31.8884 22.8773 31.3854 21.8138 30.5493 21.0231C29.6587 20.171 28.4963 19.8165 27.5174 20.096C27.2591 20.171 27.0484 20.2732 26.892 20.4096C26.4162 20.8254 26.3618 21.4866 26.3074 22.1888C26.287 22.4887 26.2598 22.7955 26.1987 23.0818C26.1851 23.1499 26.1171 23.1908 26.0559 23.1772C25.9879 23.1636 25.9471 23.1022 25.9607 23.0341C26.0151 22.7614 26.0423 22.4614 26.0627 22.1683C26.1171 21.4457 26.1783 20.7027 26.7289 20.2187C26.9124 20.0551 27.1571 19.9324 27.4495 19.8506C28.5099 19.5507 29.7607 19.9324 30.7192 20.839C31.5893 21.6707 32.1195 22.8023 32.5274 23.8112L32.5886 23.9543C32.9421 24.8337 33.3092 25.7472 34.0637 26.2584C34.3628 26.4629 34.8319 26.6197 35.1718 26.4016C35.3077 26.3198 35.4165 26.1766 35.5184 25.9721C35.7904 25.4268 35.804 24.7655 35.566 24.2066C35.5388 24.1452 35.566 24.0702 35.6272 24.0429C35.6884 24.0157 35.7632 24.0429 35.7904 24.1043C36.0555 24.7246 36.0419 25.4608 35.736 26.0744C35.6136 26.3198 35.4709 26.4902 35.3009 26.5993C35.1378 26.7015 34.9678 26.7424 34.7911 26.7424V26.756Z" fill="#AE8B0D"/>
<path d="M32.7654 17.8124C32.7654 17.8124 32.7586 17.8124 32.7518 17.8124C32.6838 17.8055 32.6363 17.7442 32.6431 17.676C32.8198 16.2581 32.6566 14.7993 32.1672 13.4564C31.7797 12.393 31.2359 11.6704 30.5561 11.3091C29.6316 10.8183 28.374 10.9751 27.334 11.7113C26.3551 12.4066 25.6889 13.47 25.1451 14.4108C25.1111 14.4653 25.0363 14.4857 24.9751 14.4517C24.914 14.4176 24.9004 14.3426 24.9343 14.2812C25.4918 13.3201 26.1783 12.2294 27.198 11.5068C28.3061 10.716 29.6724 10.5524 30.6717 11.0841C31.4059 11.4727 31.9837 12.243 32.3983 13.3678C32.9014 14.7448 33.0713 16.2445 32.8878 17.7033C32.881 17.7646 32.8266 17.8124 32.7654 17.8124Z" fill="#AE8B0D"/>
<path d="M16.1991 21.5753C15.3834 21.5753 14.6153 21.4321 14.1326 20.8527C13.8607 20.5323 13.7315 20.1233 13.6296 19.7688C13.3849 18.9099 13.2897 18.201 13.3237 17.5465C13.3509 16.9671 13.5072 16.1286 14.0714 15.4197C14.5201 14.8607 15.1863 14.4722 15.8932 14.3631C16.0632 14.3358 16.2399 14.3222 16.4099 14.3085C16.6818 14.2881 16.9401 14.2745 17.1848 14.1927C17.2528 14.1722 17.314 14.2063 17.3344 14.2745C17.3548 14.3358 17.3208 14.4108 17.2528 14.4244C16.9809 14.5062 16.6954 14.5267 16.4235 14.5471C16.2603 14.5608 16.0904 14.5676 15.9272 14.5949C15.2746 14.6971 14.6696 15.0516 14.255 15.5628C13.7315 16.2173 13.5888 17.0012 13.5616 17.5465C13.5344 18.1737 13.6228 18.8554 13.8607 19.6938C13.9559 20.0279 14.0714 20.4028 14.3162 20.6891C14.8668 21.3435 15.8593 21.364 16.8517 21.3026C16.9129 21.289 16.9741 21.3503 16.9809 21.4185C16.9809 21.4867 16.9333 21.5412 16.8653 21.548C16.641 21.5617 16.4167 21.5753 16.1924 21.5753H16.1991Z" fill="#AE8B0D"/>
<path d="M22.4463 11.7182C22.4463 11.7182 22.4056 11.7182 22.3852 11.6977C22.3308 11.6637 22.3104 11.5887 22.3444 11.5273C22.827 10.7229 23.1533 9.80948 23.2825 8.87557C23.2893 8.80741 23.3572 8.7665 23.4184 8.77332C23.4864 8.78014 23.534 8.84831 23.5204 8.90966C23.3844 9.87083 23.0513 10.8184 22.5483 11.65C22.5279 11.6909 22.4871 11.7114 22.4463 11.7114V11.7182Z" fill="#AE8B0D"/>
<path d="M12.4196 9.89124C11.7738 9.89124 11.1008 9.82989 10.4822 9.57085C8.89151 8.90961 8.02139 6.90547 8.606 5.28306C9.19741 3.66065 11.1552 2.69266 12.7934 3.21074C12.8546 3.23119 12.8954 3.29936 12.875 3.36071C12.8546 3.42206 12.7867 3.46296 12.7255 3.44251C11.2028 2.96533 9.38775 3.85834 8.84393 5.36486C8.3001 6.87138 9.10904 8.72556 10.5842 9.33908C11.3931 9.6731 12.2972 9.65947 13.1537 9.61856C13.9355 9.57766 14.5813 9.52313 15.2203 9.35952C15.9068 9.18229 16.5662 8.88235 17.2052 8.58922C17.8646 8.28928 18.5376 7.98252 19.0678 7.47808C19.6116 6.96 19.9515 6.25787 20.2302 5.64435C20.6721 4.66954 21.0596 3.66065 21.3791 2.63813L21.4199 2.50179C21.549 2.07915 21.685 1.63605 21.9161 1.24068C22.1676 0.811215 22.5823 0.0818135 23.1465 0.259051C23.5476 0.381754 23.7719 0.743046 23.9826 1.09752C24.0846 1.26794 24.1866 1.42473 24.2953 1.56107C24.3361 1.60878 24.3361 1.69059 24.2817 1.73149C24.2342 1.77921 24.1526 1.77239 24.1118 1.71785C23.9826 1.56788 23.8739 1.39065 23.7719 1.22022C23.5748 0.893017 23.3844 0.586259 23.0717 0.490824C22.691 0.374937 22.3308 0.995269 22.12 1.36338C21.9025 1.73149 21.7733 2.16095 21.6442 2.56996L21.6034 2.70629C21.2839 3.73564 20.8896 4.75816 20.4478 5.73979C20.1623 6.37375 19.802 7.09634 19.231 7.6485C18.6735 8.18021 17.9802 8.5006 17.3072 8.80736C16.6614 9.10049 15.9884 9.40724 15.2814 9.5913C14.6289 9.76172 13.9627 9.82307 13.1673 9.86397C12.9294 9.8776 12.6779 9.88442 12.4264 9.88442L12.4196 9.89124Z" fill="#AE8B0D"/>
<path d="M34.0978 44.0299C34.0434 44.0299 33.9958 43.9959 33.9822 43.9413C33.9618 43.8732 34.0026 43.8118 34.0638 43.7914C39.8895 42.0599 43.268 37.2404 46.497 32.0323C47.9789 29.9464 49.7123 28.0172 51.3778 26.1494C52.9549 24.3838 54.5864 22.5637 56.0003 20.6209C56.483 19.9665 56.9588 19.2712 57.4143 18.5963C59.2837 15.8696 61.2074 13.0474 64.1713 11.6023C66.972 10.4707 73.6134 9.30498 77.0463 11.575C78.3515 12.4339 79.0313 13.695 79.0653 15.3243C79.0653 15.3924 79.0109 15.447 78.9429 15.447C78.8817 15.4538 78.8205 15.3924 78.8205 15.3243C78.7865 13.7836 78.1408 12.5907 76.9104 11.7727C73.5454 9.55039 67.0128 10.7024 64.2664 11.8136C61.3706 13.2315 59.4604 16.0264 57.6114 18.7259C57.1491 19.4007 56.6733 20.096 56.1907 20.7573C54.7699 22.7069 53.1316 24.5338 51.5478 26.2994C49.8823 28.1604 48.1557 30.0895 46.6873 32.155C43.438 37.3972 40.0255 42.2507 34.1182 44.0095C34.1046 44.0095 34.0978 44.0095 34.0842 44.0095L34.0978 44.0299Z" fill="#AE8B0D"/>
<path d="M72.9472 35.3657C72.6345 35.3657 72.3218 35.318 72.0159 35.2089C71.1594 34.8953 70.4728 34.0637 70.1737 32.9935C69.9086 32.0391 69.9493 31.0438 69.9969 30.0895C69.9969 30.0213 70.0513 29.9736 70.1193 29.9736C70.1873 29.9736 70.2416 30.0349 70.2349 30.1031C70.1941 31.0438 70.1533 32.0118 70.4048 32.9321C70.6835 33.9342 71.3157 34.6977 72.0974 34.9908C73.0016 35.318 74.0212 35.018 74.9049 34.6772C78.2631 33.3752 81.2881 31.2824 84.2247 29.2578C85.5979 28.3103 87.0186 27.3287 88.4598 26.4357L88.6705 26.3061C90.4379 25.2154 92.4501 23.9748 93.0143 21.9706C93.157 21.4798 93.1502 21.0708 93.0075 20.7504C92.7696 20.2187 92.1646 19.9528 91.6615 19.7824C89.4658 19.0326 87.0458 19.053 84.8569 19.8301C84.7957 19.8506 84.721 19.8165 84.7006 19.7552C84.6802 19.6938 84.7142 19.6188 84.7753 19.5984C87.0118 18.8008 89.4862 18.7872 91.7363 19.5507C92.2393 19.7211 92.9463 20.021 93.225 20.6482C93.395 21.0231 93.4018 21.4866 93.2454 22.0388C92.654 24.1384 90.6011 25.3995 88.7928 26.5175L88.5821 26.647C87.1478 27.5332 85.7338 28.5148 84.3607 29.4623C81.4172 31.4937 78.3786 33.5933 74.9933 34.909C74.3543 35.1544 73.6473 35.3862 72.9472 35.3862V35.3657Z" fill="#AE8B0D"/>
<path d="M33.8259 44.4184C33.7647 44.2275 33.8735 44.023 34.0706 43.9617C34.2677 43.9071 34.4717 44.023 34.5261 44.2139C34.5872 44.4116 34.4717 44.6161 34.2813 44.6706C34.2473 44.6843 34.2066 44.6911 34.1726 44.6911C34.0162 44.6911 33.8735 44.582 33.8259 44.4252V44.4184ZM33.2617 42.5574C33.2005 42.3597 33.3092 42.1552 33.4996 42.1007C33.6967 42.0393 33.9007 42.1484 33.955 42.3393C34.0162 42.537 33.9142 42.7415 33.7171 42.796C33.6831 42.8096 33.6423 42.8164 33.6083 42.8164C33.452 42.8164 33.3092 42.7142 33.2549 42.5574H33.2617ZM32.6703 40.7032C32.6091 40.5055 32.711 40.301 32.9014 40.2397C33.0917 40.1783 33.2956 40.2806 33.3568 40.4714C33.418 40.6691 33.316 40.8736 33.1257 40.935C33.0917 40.9418 33.0509 40.9554 33.0169 40.9554C32.8674 40.9554 32.7178 40.86 32.6703 40.7032ZM32.0517 38.8559C31.9837 38.665 32.0856 38.4537 32.276 38.3923C32.4663 38.3241 32.677 38.4264 32.7382 38.6173C32.8062 38.8081 32.7042 39.0195 32.5139 39.0808C32.4731 39.0944 32.4391 39.1081 32.3983 39.1081C32.2488 39.1081 32.0992 39.0126 32.0517 38.8559ZM31.4059 37.0153C31.3379 36.8244 31.4331 36.6131 31.6234 36.545C31.8069 36.4768 32.0245 36.5722 32.0924 36.7631C32.1604 36.954 32.0652 37.1653 31.8749 37.2335C31.8341 37.2471 31.7933 37.2539 31.7457 37.2539C31.603 37.2539 31.4602 37.1585 31.4059 37.0153ZM30.7261 35.1884C30.6513 34.9975 30.7533 34.7862 30.9368 34.7112C31.1271 34.6431 31.3379 34.7385 31.4127 34.9294C31.4874 35.1134 31.3855 35.3316 31.2019 35.3997C31.1611 35.4202 31.1136 35.427 31.0728 35.427C30.9232 35.427 30.7873 35.3384 30.7329 35.1952L30.7261 35.1884ZM30.0191 33.3683C29.9443 33.1843 30.0395 32.9661 30.223 32.8911C30.4134 32.8161 30.6241 32.9048 30.6989 33.0956C30.7737 33.2797 30.6785 33.4978 30.495 33.5728C30.4542 33.5933 30.3998 33.6001 30.359 33.6001C30.2162 33.6001 30.0735 33.5183 30.0191 33.3683ZM29.2849 31.5618C29.2102 31.371 29.2917 31.1597 29.4821 31.0847C29.6656 31.0097 29.8832 31.0915 29.9579 31.2824C30.0327 31.4664 29.9443 31.6845 29.7608 31.7595C29.72 31.78 29.6656 31.7868 29.618 31.7868C29.4753 31.7868 29.3393 31.705 29.2849 31.5618ZM28.5236 29.769C28.4488 29.5781 28.5236 29.36 28.7139 29.285C28.8975 29.21 29.115 29.285 29.1966 29.4759C29.2714 29.66 29.1966 29.8781 29.0062 29.9599C28.9586 29.9803 28.9111 29.9872 28.8635 29.9872C28.7207 29.9872 28.5848 29.9054 28.5236 29.769Z" fill="#AE8B0D"/>
<path d="M33.8871 26.7288C33.7104 26.6265 33.656 26.3947 33.758 26.2243C33.86 26.0539 34.0843 25.9925 34.261 26.0948C34.431 26.197 34.4921 26.4288 34.3902 26.5992C34.3222 26.7151 34.1998 26.7833 34.0707 26.7833C34.0095 26.7833 33.9415 26.7628 33.8871 26.7288ZM35.5254 26.2788C35.3419 26.197 35.2603 25.9789 35.3351 25.7949C35.4166 25.6108 35.6342 25.529 35.8177 25.604C36.0013 25.6858 36.0828 25.9039 36.0081 26.088C35.9469 26.2243 35.8109 26.3061 35.675 26.3061C35.6274 26.3061 35.5798 26.2993 35.5254 26.2788ZM32.5344 25.0791C32.446 24.895 32.5276 24.6769 32.7043 24.5883C32.8879 24.4997 33.1122 24.5815 33.1938 24.7587C33.2753 24.9427 33.2006 25.1609 33.017 25.2495C32.9694 25.2768 32.9151 25.2836 32.8607 25.2836C32.7247 25.2836 32.5956 25.2086 32.5276 25.0791H32.5344ZM31.7662 23.2726C31.6847 23.0886 31.7662 22.8704 31.9498 22.7886C32.1333 22.7 32.3508 22.7886 32.4392 22.9659C32.5208 23.1499 32.4392 23.3681 32.2625 23.4567C32.2149 23.4771 32.1605 23.4908 32.1061 23.4908C31.9702 23.4908 31.841 23.409 31.773 23.2726H31.7662ZM26.0085 23.4158C25.8114 23.3749 25.6822 23.184 25.723 22.9795C25.7638 22.7818 25.9541 22.6591 26.1512 22.6932C26.3484 22.7341 26.4775 22.925 26.4368 23.1295C26.396 23.2999 26.2464 23.4226 26.0765 23.4226C26.0765 23.4226 26.0289 23.4226 26.0017 23.4158H26.0085ZM30.8213 21.6775C30.6922 21.5139 30.7194 21.2889 30.8825 21.1594C31.0389 21.0299 31.27 21.0572 31.3923 21.2208C31.5215 21.3775 31.4943 21.6093 31.3312 21.732C31.27 21.7866 31.1884 21.8138 31.1 21.8138C30.9913 21.8138 30.8893 21.7661 30.8145 21.6775H30.8213ZM26.2328 21.4798C26.0357 21.4253 25.9269 21.2208 25.9813 21.0231C26.0357 20.8254 26.2396 20.7163 26.43 20.7708C26.6271 20.8254 26.7427 21.0299 26.6883 21.2208C26.6407 21.3844 26.4911 21.4934 26.3348 21.4934C26.3348 21.4934 26.2736 21.4934 26.2396 21.4798H26.2328ZM29.4482 20.5527C29.2646 20.4641 29.1899 20.246 29.2782 20.0619C29.3666 19.8778 29.5841 19.8029 29.7677 19.8915C29.9512 19.9801 30.026 20.1982 29.9376 20.3823C29.8764 20.5118 29.7405 20.5936 29.6045 20.5936C29.5569 20.5936 29.4958 20.58 29.4482 20.5527ZM27.3545 19.9937C27.3205 19.796 27.4496 19.6052 27.6468 19.5643C27.8439 19.5302 28.0342 19.6597 28.0682 19.8642C28.1022 20.0619 27.9731 20.2528 27.7759 20.2869C27.7759 20.2869 27.7283 20.2869 27.7079 20.2869C27.5312 20.2869 27.3816 20.1641 27.3477 19.9869L27.3545 19.9937Z" fill="#AE8B0D"/>
<path d="M32.7178 18.0578C32.5207 18.0306 32.3779 17.8465 32.3983 17.6488C32.4255 17.4511 32.6091 17.308 32.8062 17.3284C33.0033 17.3557 33.1461 17.5397 33.1257 17.7374C33.0985 17.9215 32.9421 18.0578 32.7654 18.0578H32.7178ZM32.4323 15.7742C32.4119 15.5697 32.5615 15.3924 32.7654 15.372C32.9625 15.3584 33.1461 15.5015 33.1665 15.706C33.1801 15.9105 33.0373 16.0878 32.8334 16.1082H32.7994C32.6159 16.1082 32.4527 15.965 32.4323 15.7742ZM32.072 13.9336C32.0109 13.7359 32.1128 13.5314 32.31 13.4769C32.5003 13.4156 32.711 13.5246 32.7654 13.7155C32.8266 13.9132 32.7178 14.1177 32.5207 14.1722C32.4867 14.179 32.4527 14.1927 32.4119 14.1927C32.2556 14.1927 32.1128 14.0904 32.0652 13.9336H32.072ZM25.1587 14.1245C24.9887 14.0154 24.9343 13.7905 25.0431 13.6201C25.1519 13.4496 25.3762 13.3951 25.5529 13.5042C25.7229 13.6132 25.7773 13.8382 25.6685 14.0086C25.6005 14.1177 25.4782 14.1859 25.3558 14.1859C25.2946 14.1859 25.2266 14.1654 25.1655 14.1245H25.1587ZM26.2667 12.5157C26.124 12.3726 26.1172 12.1408 26.2599 11.9977C26.3959 11.8545 26.627 11.8477 26.7765 11.9908C26.9261 12.134 26.9261 12.3589 26.7833 12.5089C26.7086 12.5839 26.6134 12.6248 26.5182 12.6248C26.4231 12.6248 26.3347 12.5907 26.2667 12.5225V12.5157ZM31.2903 12.284C31.1679 12.1204 31.2019 11.8954 31.3651 11.7727C31.5282 11.65 31.7525 11.6841 31.8749 11.8477C31.9905 12.0113 31.9565 12.2431 31.8001 12.3589C31.7321 12.4067 31.6574 12.4339 31.5826 12.4339C31.4738 12.4339 31.3651 12.3794 31.2903 12.284ZM27.769 11.2819C27.6942 11.0978 27.7894 10.8797 27.973 10.8047C28.1633 10.7297 28.374 10.8252 28.4488 11.016C28.5236 11.2001 28.4284 11.4182 28.2381 11.4932C28.1973 11.5068 28.1497 11.5205 28.1089 11.5205C27.9594 11.5205 27.8234 11.4319 27.769 11.2887V11.2819ZM29.9375 11.3296C29.7404 11.2819 29.618 11.0842 29.6656 10.8933C29.7132 10.6956 29.9103 10.5729 30.1075 10.6207C30.3046 10.6684 30.427 10.8661 30.3794 11.0637C30.3386 11.2342 30.189 11.3501 30.0259 11.3501C30.0259 11.3501 29.9647 11.3501 29.9443 11.3432L29.9375 11.3296Z" fill="#AE8B0D"/>
<path d="M16.4983 21.4525C16.4847 21.2548 16.6342 21.0776 16.8382 21.064C17.0353 21.0571 17.212 21.2071 17.2256 21.4048C17.2392 21.6093 17.0897 21.7797 16.8925 21.7934H16.8654C16.675 21.7934 16.5119 21.6502 16.5051 21.4525H16.4983ZM14.8056 21.6093C14.6221 21.5411 14.5201 21.323 14.5949 21.1321C14.6629 20.9481 14.8804 20.8458 15.0639 20.9208C15.2543 20.9958 15.3494 21.2071 15.2815 21.398C15.2271 21.5411 15.0843 21.6298 14.9416 21.6298C14.9008 21.6298 14.8532 21.6298 14.8124 21.6025L14.8056 21.6093ZM13.4189 19.9119C13.3645 19.7142 13.4733 19.5097 13.6704 19.4552C13.8675 19.3938 14.0715 19.5097 14.1258 19.7074C14.187 19.9051 14.0715 20.1028 13.8743 20.1641C13.8403 20.171 13.8063 20.1778 13.7724 20.1778C13.616 20.1778 13.4733 20.0687 13.4189 19.9119ZM13.079 17.8941C13.079 17.6964 13.2353 17.5192 13.4325 17.5192C13.6296 17.5192 13.8063 17.6828 13.8063 17.8805C13.8063 18.0782 13.6432 18.2486 13.4461 18.2554H13.4393C13.2421 18.2554 13.079 18.0918 13.079 17.8941ZM13.6772 16.3194C13.4936 16.224 13.4257 16.0059 13.5208 15.8286C13.616 15.6446 13.8335 15.5764 14.0103 15.6718C14.1938 15.7673 14.2618 15.9854 14.1734 16.1627C14.1054 16.2854 13.9763 16.3603 13.8471 16.3603C13.786 16.3603 13.7384 16.3535 13.684 16.3194H13.6772ZM14.9008 14.8266C14.8192 14.6425 14.9008 14.4244 15.0911 14.3426C15.2747 14.2676 15.4922 14.3426 15.567 14.5334C15.6485 14.7175 15.567 14.9356 15.3834 15.0106C15.3358 15.0379 15.2883 15.0447 15.2339 15.0447C15.0911 15.0447 14.9552 14.9629 14.9008 14.8266ZM16.7906 14.4244C16.7362 14.2267 16.8586 14.029 17.0557 13.9745C17.2528 13.9267 17.45 14.0426 17.4976 14.2403C17.5451 14.438 17.4296 14.6357 17.2324 14.6902C17.2324 14.6902 17.1713 14.697 17.1441 14.697C16.9809 14.697 16.8314 14.588 16.7906 14.4244Z" fill="#AE8B0D"/>
<path d="M22.2561 11.909C22.0862 11.8067 22.025 11.5817 22.1338 11.4045C22.2357 11.2341 22.46 11.1727 22.6368 11.2818C22.8067 11.3841 22.8679 11.609 22.7592 11.7863C22.6912 11.8953 22.5688 11.9635 22.4465 11.9635C22.3853 11.9635 22.3173 11.9499 22.2561 11.909ZM23.1126 10.157C22.9155 10.1025 22.8067 9.89799 22.8611 9.7003C22.9155 9.50943 23.1126 9.39354 23.3098 9.44808C23.5069 9.50261 23.6225 9.7003 23.5681 9.89799C23.5205 10.0616 23.371 10.1638 23.2146 10.1638C23.2146 10.1638 23.1534 10.1638 23.1194 10.157H23.1126Z" fill="#AE8B0D"/>
<path d="M12.2497 10.1298C12.0458 10.1298 11.8826 9.95936 11.8894 9.75485C11.8894 9.55717 12.0594 9.39356 12.2565 9.39356C12.4604 9.39356 12.6236 9.56398 12.6168 9.76849C12.6168 9.96618 12.4536 10.123 12.2497 10.123V10.1298ZM13.8404 9.70714C13.8132 9.50263 13.9627 9.31858 14.1599 9.29813C14.357 9.27768 14.5406 9.42083 14.5677 9.62533C14.5949 9.82302 14.4454 10.0071 14.2482 10.0275C14.2482 10.0275 14.2211 10.0275 14.2075 10.0275C14.0239 10.0275 13.8676 9.89119 13.8472 9.70714H13.8404ZM10.1968 9.70714C10.0132 9.61852 9.94524 9.40038 10.0336 9.21632C10.122 9.03227 10.3463 8.95728 10.5231 9.05272C10.7066 9.14134 10.7746 9.35948 10.6862 9.54353C10.625 9.67305 10.4959 9.74804 10.3599 9.74804C10.3055 9.74804 10.2511 9.74122 10.1968 9.70714ZM15.7506 9.33221C15.6758 9.14816 15.771 8.93002 15.9613 8.86185C16.1516 8.78686 16.3624 8.8823 16.4371 9.07317C16.5119 9.25723 16.41 9.47536 16.2264 9.55035C16.1856 9.56398 16.138 9.57762 16.0973 9.57762C15.9545 9.57762 15.8117 9.48218 15.7574 9.33903L15.7506 9.33221ZM17.5452 8.57554C17.4568 8.39149 17.5316 8.17335 17.7083 8.08473C17.8919 7.99611 18.1094 8.0711 18.1978 8.24833C18.2929 8.43239 18.2182 8.65053 18.0346 8.73915C17.9802 8.76641 17.9259 8.78005 17.8715 8.78005C17.7423 8.78005 17.6064 8.70506 17.5452 8.58236V8.57554ZM8.66726 8.20743C8.57209 8.03019 8.63327 7.80524 8.81001 7.7098C8.99355 7.61437 9.21108 7.67572 9.30625 7.85296C9.40142 8.0302 9.34024 8.25515 9.16349 8.35059C9.10231 8.38467 9.04793 8.3983 8.98675 8.3983C8.85759 8.3983 8.73523 8.33014 8.66726 8.20743ZM19.197 7.53938C19.0407 7.40986 19.0135 7.18491 19.1495 7.02812C19.2786 6.87133 19.503 6.84407 19.6593 6.9804C19.8156 7.10992 19.8428 7.33488 19.7069 7.49166C19.6321 7.58028 19.5301 7.628 19.4214 7.628C19.3466 7.628 19.2582 7.60073 19.1903 7.53938H19.197ZM8.5313 6.51686C8.32737 6.50322 8.17781 6.3328 8.19141 6.1283C8.19821 5.93061 8.37495 5.77382 8.57888 5.78746C8.77602 5.80109 8.93237 5.97151 8.91877 6.17602C8.91198 6.36689 8.74883 6.51686 8.55849 6.51686H8.5313ZM20.2439 5.90334C20.0604 5.82154 19.9788 5.6034 20.0604 5.41935C20.1419 5.23529 20.3595 5.15349 20.543 5.23529C20.7266 5.31709 20.8081 5.53523 20.7266 5.71929C20.6654 5.85562 20.5294 5.93743 20.3935 5.93743C20.3459 5.93743 20.2983 5.93061 20.2439 5.91016V5.90334ZM9.04113 4.65586C8.89158 4.52634 8.87799 4.28775 9.00715 4.13778C9.1363 3.98781 9.37423 3.97418 9.52378 4.1037C9.67333 4.23322 9.68693 4.46499 9.55777 4.62178C9.48299 4.70358 9.38782 4.74448 9.28586 4.74448C9.19748 4.74448 9.11591 4.71721 9.04113 4.65586ZM20.9985 4.09688C20.8081 4.02871 20.713 3.81739 20.7809 3.62652C20.8489 3.43565 21.0596 3.34021 21.25 3.40838C21.4403 3.47655 21.5355 3.68787 21.4675 3.87874C21.4131 4.02871 21.2704 4.12415 21.1208 4.12415C21.08 4.12415 21.0393 4.11733 20.9985 4.09688ZM10.557 3.44247C10.4959 3.24478 10.6114 3.04709 10.8086 2.98574C10.9989 2.92439 11.2028 3.03345 11.264 3.23114C11.3252 3.42201 11.2096 3.62652 11.0193 3.68787C10.9853 3.7015 10.9445 3.70832 10.9105 3.70832C10.7542 3.70832 10.6114 3.60607 10.557 3.44247ZM21.6103 2.2427C21.4267 2.17453 21.3248 1.96321 21.3927 1.77234C21.4675 1.58147 21.6782 1.48603 21.8686 1.5542C22.0589 1.62237 22.1541 1.83369 22.0861 2.02456C22.0317 2.16772 21.889 2.26315 21.7462 2.26315C21.7054 2.26315 21.6579 2.26315 21.6171 2.23589L21.6103 2.2427ZM23.9283 1.87459C23.7924 1.72462 23.8128 1.49285 23.9623 1.36333C24.1119 1.22699 24.343 1.24744 24.4789 1.39741C24.6081 1.54739 24.5945 1.77916 24.4382 1.91549C24.3702 1.97685 24.2886 2.00411 24.2002 2.00411C24.0983 2.00411 23.9963 1.96321 23.9283 1.87459ZM22.5076 0.449875C22.46 0.252187 22.5756 0.0544985 22.7727 0.0067806C22.9698 -0.0409372 23.167 0.0817658 23.2146 0.272637C23.2621 0.470325 23.1466 0.668014 22.9494 0.715731C22.9494 0.715731 22.8883 0.722548 22.8611 0.722548C22.6979 0.722548 22.5484 0.613479 22.5076 0.443058V0.449875Z" fill="#AE8B0D"/>
<path d="M33.7512 44.0162C33.69 43.8185 33.8056 43.614 33.9959 43.5595C34.1931 43.4981 34.397 43.614 34.4514 43.8049C34.5058 44.0026 34.397 44.2071 34.1999 44.2616C34.1659 44.2753 34.1319 44.2821 34.0979 44.2821C33.9347 44.2821 33.792 44.173 33.7444 44.0162H33.7512ZM35.5934 43.3891C35.5118 43.205 35.5934 42.9869 35.7769 42.9051C35.9605 42.8233 36.178 42.9051 36.2596 43.0891C36.3412 43.2732 36.2596 43.4913 36.076 43.5731C36.0285 43.6004 35.9809 43.6072 35.9333 43.6072C35.7905 43.6072 35.6546 43.5254 35.6002 43.3891H35.5934ZM37.3404 42.5233C37.2317 42.3529 37.2861 42.128 37.4628 42.0189C37.6327 41.9166 37.8571 41.9712 37.9658 42.1416C38.0678 42.3188 38.0134 42.5438 37.8435 42.6529C37.7823 42.6869 37.7143 42.7006 37.6531 42.7006C37.524 42.7006 37.4084 42.6392 37.3404 42.5233ZM38.9651 41.4463C38.836 41.2827 38.8699 41.0577 39.0263 40.935C39.1894 40.8055 39.4138 40.8396 39.5361 40.9964C39.6653 41.1532 39.6313 41.3849 39.4749 41.5076C39.4138 41.5622 39.3254 41.5826 39.2506 41.5826C39.1419 41.5826 39.0331 41.5349 38.9651 41.4395V41.4463ZM40.4538 40.192C40.3179 40.042 40.3247 39.8171 40.4674 39.6739C40.6102 39.5376 40.8413 39.5376 40.9841 39.6807C41.12 39.8239 41.1132 40.0625 40.9773 40.1988C40.9025 40.267 40.8141 40.301 40.7257 40.301C40.6306 40.301 40.5286 40.267 40.4606 40.192H40.4538ZM41.8202 38.8013C41.6638 38.6718 41.6502 38.4332 41.7862 38.2833C41.9154 38.1333 42.1465 38.1197 42.3028 38.2492C42.4524 38.3855 42.466 38.6173 42.3368 38.7673C42.262 38.8491 42.1601 38.8968 42.0581 38.8968C41.9765 38.8968 41.8882 38.8695 41.8202 38.8013ZM43.071 37.3085C42.9078 37.1858 42.8806 36.954 43.003 36.7972C43.1254 36.6336 43.3565 36.6063 43.5128 36.729C43.676 36.8517 43.7032 37.0835 43.5808 37.2403C43.506 37.3357 43.3973 37.3834 43.2885 37.3834C43.2137 37.3834 43.1322 37.3562 43.071 37.3085ZM44.2334 35.7406C44.0703 35.6247 44.0227 35.3929 44.1382 35.2293C44.2538 35.0657 44.4781 35.0248 44.6481 35.1339C44.8112 35.2498 44.8588 35.4815 44.7432 35.6451C44.6753 35.7474 44.5597 35.8019 44.4441 35.8019C44.3762 35.8019 44.3014 35.7815 44.2402 35.7406H44.2334ZM45.3279 34.125C45.1579 34.0159 45.1103 33.791 45.2191 33.6137C45.3279 33.4433 45.5522 33.3956 45.7289 33.5047C45.8921 33.6137 45.9465 33.8387 45.8377 34.0091C45.7629 34.1182 45.6474 34.1795 45.5318 34.1795C45.4638 34.1795 45.3958 34.1591 45.3347 34.1182L45.3279 34.125ZM46.3747 32.4753C46.2048 32.3663 46.1504 32.1413 46.2592 31.9709C46.3679 31.8005 46.5922 31.7459 46.7622 31.855C46.9321 31.9572 46.9865 32.189 46.8778 32.3594C46.803 32.4753 46.6874 32.5299 46.5651 32.5299C46.4971 32.5299 46.4291 32.5162 46.3679 32.4753H46.3747ZM47.5099 30.887C47.3536 30.7643 47.3264 30.5325 47.4488 30.3757C47.5711 30.2121 47.8023 30.1917 47.9586 30.3144C48.1218 30.4439 48.1421 30.6689 48.0198 30.8325C47.9518 30.9279 47.843 30.9688 47.7343 30.9688C47.6527 30.9688 47.5711 30.9415 47.5031 30.8938L47.5099 30.887ZM48.7403 29.3668C48.584 29.2373 48.5704 29.0056 48.6996 28.8556C48.8287 28.6988 49.0666 28.6783 49.2162 28.8147C49.3725 28.9442 49.3861 29.176 49.257 29.3328C49.1822 29.4146 49.0802 29.4623 48.9715 29.4623C48.8899 29.4623 48.8083 29.435 48.7403 29.3737V29.3668ZM50.0115 27.8876C49.862 27.7513 49.8484 27.5195 49.9843 27.3695C50.1135 27.2195 50.3514 27.2059 50.501 27.3422C50.6505 27.4718 50.6641 27.7035 50.5282 27.8535C50.4534 27.9353 50.3582 27.9762 50.2563 27.9762C50.1679 27.9762 50.0795 27.9489 50.0115 27.8876ZM51.3099 26.4288C51.1604 26.2925 51.1468 26.0607 51.2827 25.9107C51.4119 25.7607 51.6498 25.7471 51.7994 25.8834C51.9489 26.0198 51.9625 26.2515 51.8265 26.4015C51.7586 26.4833 51.6566 26.5242 51.5614 26.5242C51.4731 26.5242 51.3847 26.497 51.3099 26.4288ZM52.6083 24.97C52.4587 24.8405 52.4452 24.6019 52.5811 24.4519C52.7103 24.3019 52.9414 24.2883 53.0977 24.4246C53.2473 24.5542 53.2609 24.7859 53.1249 24.9359C53.0502 25.0177 52.955 25.0654 52.853 25.0654C52.7646 25.0654 52.6831 25.0382 52.6083 24.97ZM53.8931 23.4976C53.7367 23.368 53.7163 23.1363 53.8523 22.9795C53.9815 22.8227 54.2126 22.8022 54.3689 22.9386C54.5253 23.0681 54.5457 23.2999 54.4097 23.4566C54.3349 23.5385 54.233 23.5862 54.1242 23.5862C54.0426 23.5862 53.9611 23.5589 53.8931 23.5044V23.4976ZM55.1371 21.9842C54.9739 21.8615 54.9467 21.6297 55.0759 21.4729C55.1983 21.3093 55.4294 21.2889 55.5857 21.4116C55.7489 21.5343 55.7761 21.7661 55.6469 21.9229C55.5721 22.0183 55.4634 22.066 55.3614 22.066C55.2866 22.066 55.1983 22.0387 55.1371 21.991V21.9842ZM56.3131 20.4232C56.15 20.3073 56.1092 20.0755 56.2247 19.9119C56.3403 19.7483 56.5714 19.7074 56.7346 19.8233C56.8977 19.9392 56.9385 20.1641 56.8229 20.3345C56.7482 20.4368 56.6394 20.4913 56.5238 20.4913C56.4491 20.4913 56.3811 20.4709 56.3131 20.4232ZM57.4279 18.8212C57.2648 18.7121 57.2172 18.4804 57.3328 18.3099C57.4415 18.1463 57.6727 18.0986 57.8426 18.2145C58.0058 18.3304 58.0533 18.5622 57.9378 18.7258C57.8698 18.828 57.7542 18.8826 57.6387 18.8826C57.5707 18.8826 57.4959 18.8621 57.4347 18.8212H57.4279ZM58.536 17.2124C58.3728 17.0965 58.3388 16.8648 58.4544 16.7012C58.57 16.5376 58.8011 16.5035 58.9642 16.6194C59.1274 16.7421 59.1682 16.967 59.0458 17.1306C58.9778 17.2261 58.8623 17.2806 58.7535 17.2806C58.6787 17.2806 58.604 17.2601 58.536 17.2124ZM59.6984 15.6446C59.5421 15.515 59.5149 15.2901 59.644 15.1333C59.7732 14.9765 60.0043 14.9492 60.1607 15.0788C60.317 15.2083 60.3374 15.4332 60.2082 15.5968C60.1335 15.6855 60.0315 15.7264 59.9227 15.7264C59.8412 15.7264 59.7596 15.6991 59.6916 15.6446H59.6984ZM60.9764 14.1721C60.8336 14.029 60.8336 13.7972 60.9764 13.654C61.1259 13.5109 61.3503 13.5109 61.493 13.654C61.6426 13.7972 61.6358 14.029 61.493 14.1721C61.4182 14.2403 61.3299 14.2744 61.2347 14.2744C61.1395 14.2744 61.0444 14.2403 60.9764 14.1653V14.1721ZM78.304 13.8313C78.236 13.6404 78.3312 13.4291 78.5147 13.3541C78.7051 13.2791 78.9158 13.3746 78.9906 13.5654C79.0653 13.7495 78.9702 13.9676 78.7866 14.0426C78.7458 14.0562 78.6915 14.0699 78.6507 14.0699C78.5079 14.0699 78.3652 13.9812 78.3108 13.8381L78.304 13.8313ZM62.4175 12.8633C62.302 12.6997 62.336 12.4679 62.4991 12.352C62.6622 12.2361 62.8866 12.2702 63.0089 12.4338C63.1313 12.5974 63.0905 12.8224 62.9342 12.9451C62.873 12.9928 62.7914 13.0133 62.7166 13.0133C62.6079 13.0133 62.4923 12.9587 62.4175 12.8633ZM77.2911 12.3861C77.1416 12.2566 77.128 12.0248 77.2639 11.868C77.3931 11.7181 77.631 11.7044 77.7806 11.8408C77.9301 11.9703 77.9437 12.2089 77.8078 12.3588C77.733 12.4406 77.6378 12.4815 77.5358 12.4815C77.4475 12.4815 77.3659 12.4543 77.2911 12.3861ZM64.0558 11.793C63.981 11.6022 64.0762 11.3909 64.2665 11.3159C64.4501 11.2409 64.6676 11.3363 64.7424 11.5272C64.8104 11.7181 64.7152 11.9294 64.5248 12.0044C64.4841 12.018 64.4433 12.0316 64.3957 12.0316C64.2461 12.0316 64.1102 11.943 64.0558 11.7999V11.793ZM75.7344 11.4522C75.5441 11.3772 75.4489 11.1659 75.5305 10.975C75.6053 10.7842 75.816 10.6887 76.0063 10.7705C76.1899 10.8455 76.285 11.0568 76.2103 11.2477C76.1491 11.3977 76.0131 11.4795 75.8704 11.4795C75.8296 11.4795 75.782 11.4727 75.7412 11.4522H75.7344ZM65.898 11.1659C65.8504 10.9682 65.966 10.7705 66.1631 10.7228C66.3603 10.6751 66.5574 10.791 66.605 10.9887C66.6526 11.1863 66.537 11.384 66.3399 11.4318C66.3399 11.4318 66.2787 11.4454 66.2447 11.4454C66.0815 11.4454 65.932 11.3363 65.8912 11.1659H65.898ZM67.8014 10.7433C67.7742 10.5456 67.9102 10.3547 68.1073 10.3206C68.3044 10.2865 68.4948 10.4229 68.5287 10.6205C68.5559 10.8182 68.42 11.0091 68.2229 11.0432C68.2229 11.0432 68.1821 11.0432 68.1617 11.0432C67.9849 11.0432 67.8286 10.9137 67.8014 10.7364V10.7433ZM73.9262 10.9614C73.7291 10.9341 73.5931 10.7433 73.6271 10.5387C73.6611 10.3411 73.8446 10.1979 74.0486 10.2388C74.2457 10.2729 74.3817 10.4638 74.3477 10.6615C74.3205 10.8387 74.1641 10.9614 73.9874 10.9614C73.9874 10.9614 73.9466 10.9614 73.9262 10.9614ZM69.732 10.4842C69.7184 10.2865 69.8679 10.1093 70.0651 10.0957C70.269 10.082 70.4457 10.232 70.4593 10.4297C70.4729 10.6342 70.3234 10.8114 70.1194 10.8251H70.0922C69.9019 10.8251 69.7388 10.6819 69.7252 10.4842H69.732ZM71.6829 10.4024C71.6829 10.2047 71.8529 10.0411 72.0568 10.0479C72.2539 10.0479 72.4171 10.2252 72.4103 10.4229C72.4035 10.6205 72.2336 10.7842 72.0364 10.7773C71.8325 10.7705 71.6761 10.6001 71.6829 10.3956V10.4024Z" fill="#AE8B0D"/>
<path d="M72.0431 35.4748C71.846 35.4135 71.744 35.209 71.8052 35.0113C71.8664 34.8204 72.0703 34.7113 72.2607 34.7795C72.4578 34.8409 72.5598 35.0454 72.4986 35.2362C72.451 35.393 72.3015 35.4885 72.1451 35.4885C72.1111 35.4885 72.0703 35.4885 72.0364 35.4748H72.0431ZM73.7222 35.1681C73.6746 34.9704 73.7834 34.7727 73.9805 34.7182C74.1777 34.6636 74.3748 34.7795 74.4292 34.9772C74.4836 35.1749 74.368 35.3726 74.1709 35.4271C74.1709 35.4271 74.1097 35.4339 74.0757 35.4339C73.9125 35.4339 73.7698 35.3317 73.7222 35.1681ZM75.5644 34.5341C75.4896 34.35 75.5644 34.1319 75.7547 34.0501C75.9383 33.9751 76.1558 34.0501 76.2374 34.241C76.3122 34.425 76.2374 34.6432 76.0471 34.725C75.9995 34.7454 75.9519 34.7522 75.9043 34.7522C75.7615 34.7522 75.6324 34.6704 75.5712 34.5341H75.5644ZM70.3777 34.0842C70.2757 33.9138 70.3369 33.6888 70.5068 33.5797C70.6836 33.4775 70.9079 33.5388 71.0099 33.7093C71.1118 33.8797 71.0575 34.1046 70.8807 34.2137C70.8195 34.2478 70.7584 34.2682 70.6972 34.2682C70.568 34.2682 70.4525 34.2069 70.3777 34.0842ZM77.3318 33.7161C77.2367 33.532 77.3046 33.3139 77.4882 33.2253C77.6717 33.1298 77.8893 33.198 77.9776 33.3821C78.0728 33.5661 78.0048 33.7842 77.8213 33.8729C77.7669 33.9001 77.7125 33.9138 77.6581 33.9138C77.529 33.9138 77.393 33.8456 77.3318 33.7161ZM79.0449 32.7822C78.9429 32.6049 79.0041 32.38 79.174 32.2777C79.344 32.1755 79.5683 32.2368 79.6771 32.4072C79.7722 32.5845 79.7179 32.8094 79.5479 32.9117C79.4867 32.9458 79.4256 32.9662 79.3644 32.9662C79.2352 32.9662 79.1129 32.8981 79.0449 32.7822ZM69.7659 32.08C69.7455 31.8824 69.895 31.6983 70.0922 31.6778C70.2893 31.6574 70.4729 31.8074 70.4932 32.0051C70.5136 32.2027 70.3641 32.3868 70.167 32.4072H70.1262C69.9426 32.4072 69.7863 32.2709 69.7659 32.08ZM80.7103 31.7596C80.6016 31.5892 80.6492 31.3575 80.8191 31.2484C80.9891 31.1393 81.2202 31.187 81.3289 31.3575C81.4377 31.5279 81.3901 31.7596 81.2202 31.8687C81.159 31.9096 81.091 31.9301 81.023 31.9301C80.9007 31.9301 80.7851 31.8687 80.7171 31.7665L80.7103 31.7596ZM82.335 30.6826C82.2263 30.519 82.267 30.2872 82.4302 30.1713C82.6001 30.0623 82.8245 30.1032 82.94 30.2668C83.0556 30.4304 83.0148 30.6621 82.8449 30.778C82.7837 30.8189 82.7089 30.8394 82.6409 30.8394C82.5186 30.8394 82.4098 30.7848 82.335 30.6758V30.6826ZM70.099 30.4508C69.9018 30.444 69.7455 30.2668 69.7523 30.0623C69.7591 29.8646 69.9358 29.7078 70.133 29.7146C70.3369 29.7214 70.4865 29.8987 70.4865 30.0963C70.4797 30.294 70.3165 30.4508 70.1194 30.4508H70.099ZM83.9529 29.5783C83.8373 29.4147 83.8781 29.1829 84.0481 29.067C84.2112 28.9511 84.4423 28.992 84.5579 29.1624C84.6735 29.326 84.6327 29.5578 84.4627 29.6737C84.4016 29.7146 84.3268 29.735 84.2588 29.735C84.1432 29.735 84.0277 29.6805 83.9597 29.5783H83.9529ZM85.5572 28.4671C85.4484 28.3035 85.4892 28.0717 85.6523 27.9559C85.8223 27.84 86.0466 27.8877 86.1622 28.0513C86.2709 28.2149 86.2302 28.4467 86.067 28.5626C86.0058 28.6103 85.9311 28.6239 85.8563 28.6239C85.7407 28.6239 85.6252 28.5694 85.5572 28.4603V28.4671ZM87.1819 27.3832C87.0731 27.2128 87.1207 26.981 87.2906 26.872C87.4538 26.7629 87.6849 26.8106 87.7937 26.981C87.9092 27.1515 87.8548 27.3764 87.6849 27.4923C87.6237 27.5332 87.5557 27.5537 87.4878 27.5537C87.3654 27.5537 87.2498 27.4923 87.1819 27.3901V27.3832ZM88.8269 26.3403C88.7182 26.1698 88.7725 25.9381 88.9425 25.8358C89.1124 25.7267 89.3368 25.7813 89.4455 25.9517C89.5543 26.1221 89.4999 26.3471 89.33 26.4562C89.2688 26.4971 89.2008 26.5107 89.1396 26.5107C89.0173 26.5107 88.8949 26.4493 88.8269 26.3403ZM90.4652 25.2768C90.3428 25.1132 90.3768 24.8883 90.54 24.7656C90.7031 24.6429 90.9274 24.677 91.0498 24.8406C91.1722 25.0042 91.1382 25.2291 90.975 25.3518C90.9138 25.3995 90.8323 25.4268 90.7575 25.4268C90.6487 25.4268 90.54 25.3791 90.4652 25.2768ZM91.9539 24.0157C91.7976 23.8862 91.7704 23.6544 91.9063 23.4976C92.0355 23.3477 92.2666 23.3204 92.423 23.4567C92.5725 23.5863 92.5997 23.818 92.4637 23.9748C92.389 24.0566 92.287 24.1043 92.185 24.1043C92.1035 24.1043 92.0151 24.0771 91.9539 24.0157ZM93.0144 22.3865C92.8172 22.3251 92.7085 22.1206 92.7629 21.9298C92.824 21.7389 93.028 21.6298 93.2183 21.6844C93.4086 21.7457 93.5174 21.9502 93.463 22.1411C93.4154 22.3047 93.2727 22.4069 93.1095 22.4069C93.0755 22.4069 93.0416 22.4069 93.0076 22.3933L93.0144 22.3865ZM92.5385 20.4982C92.3958 20.3619 92.3754 20.1301 92.5181 19.9802C92.6541 19.8302 92.8852 19.8166 93.0348 19.9529C93.1843 20.0892 93.1979 20.321 93.0619 20.471C92.9872 20.546 92.892 20.5869 92.7968 20.5869C92.7085 20.5869 92.6201 20.5596 92.5453 20.4914L92.5385 20.4982ZM84.8978 19.6598C84.8366 19.4689 84.9454 19.2644 85.1425 19.203C85.3396 19.1417 85.5436 19.2508 85.598 19.4416C85.6591 19.6393 85.5504 19.8438 85.3532 19.8984C85.3193 19.9052 85.2785 19.912 85.2445 19.912C85.0881 19.912 84.9454 19.8166 84.891 19.6529L84.8978 19.6598ZM90.9274 19.7961C90.7303 19.7416 90.6147 19.5439 90.6691 19.353C90.7167 19.1553 90.9206 19.0394 91.1178 19.0872C91.3149 19.1417 91.4305 19.3394 91.3761 19.5371C91.3353 19.7007 91.1858 19.8097 91.0226 19.8097C91.0226 19.8097 90.9614 19.8097 90.9274 19.7961ZM86.7944 19.1962C86.7672 18.9985 86.9167 18.8145 87.1139 18.7872C87.311 18.7668 87.4946 18.9099 87.5217 19.1076C87.5421 19.3121 87.3926 19.4962 87.1955 19.5166C87.1955 19.5166 87.1683 19.5166 87.1547 19.5166C86.9711 19.5166 86.8148 19.3735 86.7944 19.1894V19.1962ZM89.0716 19.4825C88.8745 19.4689 88.7182 19.2917 88.7385 19.0872C88.7521 18.8895 88.9289 18.7327 89.126 18.7463C89.3232 18.7599 89.4795 18.9372 89.4591 19.1417C89.4455 19.3326 89.2824 19.4757 89.0988 19.4757H89.0716V19.4825Z" fill="#AE8B0D"/>
</g>
</g>
<defs>
<clipPath id="clip0_47_151">
<rect width="94" height="69" fill="white"/>
</clipPath>
</defs>
</svg>
