<svg width="98" height="75" viewBox="0 0 98 75" fill="none" xmlns="http://www.w3.org/2000/svg">
<g clip-path="url(#clip0_47_73)">
<mask id="mask0_47_73" style="mask-type:luminance" maskUnits="userSpaceOnUse" x="0" y="0" width="98" height="75">
<path d="M98 0H0V75H98V0Z" fill="white"/>
</mask>
<g mask="url(#mask0_47_73)">
<path d="M54.9431 50.2703C54.6478 50.2703 54.2732 50.1555 53.8265 49.8182C53.7185 49.7177 53.2214 49.4163 52.6523 49.0718C49.778 47.3208 43.0425 43.2159 39.4262 38.8312C38.3673 37.5466 36.6816 36.6567 34.7222 35.6234C32.1864 34.2886 29.3121 32.7672 26.9061 29.9182C20.4875 22.3041 17.2242 21.9381 11.3027 21.2778C8.47161 20.9621 4.95617 20.5674 0.201689 19.2972C0.0576144 19.2613 -0.0288308 19.1106 0.00718804 18.9671C0.0432069 18.8235 0.194485 18.7374 0.338561 18.7733C5.04982 20.0363 8.55085 20.4239 11.3604 20.7396C17.4259 21.4214 20.7613 21.7945 27.3239 29.5737C29.6579 32.3438 32.4818 33.8364 34.9743 35.1497C36.9769 36.2046 38.713 37.1232 39.844 38.4939C43.4099 42.8141 50.0806 46.883 52.9333 48.6197C53.8049 49.1508 54.0859 49.323 54.1867 49.4235C54.619 49.7392 54.9863 49.8253 55.2385 49.6459C55.8004 49.2441 55.9084 47.6509 55.4618 46.3089C54.4389 43.1872 52.3858 41.7017 50.5704 40.3885C48.186 38.6661 46.1185 37.1734 48.4093 32.638C49.5331 30.1622 52.0688 28.7915 54.7846 27.4854C59.5247 25.5047 63.7533 22.5409 67.8379 19.6775L68.9761 18.8809C70.5033 17.8332 73.4928 16.7424 76.9506 15.4794C84.4281 12.7452 93.6994 9.35075 92.8349 4.70048C91.6463 5.03777 86.899 6.37975 84.6298 7.24091C82.2742 8.13077 79.7025 8.57571 77.2172 9.00629C74.1484 9.53734 70.9787 10.0899 68.2413 11.475C57.9471 19.8282 45.146 17.2447 35.14 14.0513C34.9959 14.0082 34.9167 13.8503 34.9599 13.7068C35.0031 13.5633 35.1616 13.4843 35.3057 13.5274C45.182 16.6778 57.8174 19.2398 67.9171 11.03L67.9675 11.0013C70.7842 9.56604 74.0115 9.00629 77.1235 8.46806C79.5872 8.04466 82.1301 7.59973 84.4353 6.73139C87.0575 5.74105 92.907 4.1192 92.9646 4.10484L93.2311 4.03308L93.3032 4.29861C94.7151 9.56604 84.9684 13.1327 77.1451 15.9961C73.7233 17.2447 70.7698 18.3284 69.293 19.3402L68.162 20.1368C64.0559 23.0217 59.8057 25.9999 55.0224 27.9949C52.4146 29.2436 49.9725 30.564 48.9208 32.882C46.8389 37.0156 48.4597 38.1853 50.909 39.9579C52.6955 41.2496 54.9287 42.8643 56.0021 46.1511C56.4631 47.572 56.4343 49.4881 55.5771 50.098C55.4258 50.2057 55.2241 50.2918 54.9647 50.2918L54.9431 50.2703Z" fill="#AE8B0D"/>
<path d="M88.4621 22.6127C85.6815 22.6127 82.6415 22.1892 79.6375 21.7658C74.8038 21.0913 69.8044 20.388 66.0873 21.4931C65.9432 21.5362 65.7919 21.4501 65.7487 21.3066C65.7055 21.163 65.7919 21.0123 65.936 20.9693C69.7684 19.8354 74.8254 20.5459 79.7168 21.2276C87.007 22.2467 93.9082 23.2083 97.2363 18.7374C90.6377 18.2136 84.0246 17.2232 77.5773 15.7879C77.4332 15.7521 77.3395 15.6085 77.3683 15.465C77.4044 15.3215 77.5412 15.2282 77.6925 15.2569C84.2768 16.7209 91.0195 17.7184 97.7478 18.2351C97.8414 18.2423 97.9279 18.2997 97.9711 18.3858C98.0143 18.4719 98.0071 18.5724 97.9567 18.6513C95.9469 21.7228 92.4746 22.6127 88.4621 22.6127Z" fill="#AE8B0D"/>
<path d="M85.1917 31.0448C83.2251 31.0448 81.0352 29.9325 79.2414 29.0211C78.7372 28.7628 78.2617 28.5259 77.8223 28.325C77.2604 28.0882 76.5616 27.7652 75.7692 27.3992C72.3834 25.842 67.276 23.4953 63.7173 23.1796C63.566 23.1652 63.458 23.036 63.4724 22.8853C63.4868 22.7346 63.6237 22.627 63.7677 22.6413C67.4128 22.9714 72.5779 25.3396 75.9997 26.9113C76.7921 27.2772 77.4837 27.593 78.0456 27.837C78.4922 28.0451 78.9749 28.2891 79.4864 28.5475C82.3679 30.0114 85.9265 31.8127 87.994 29.1359C84.1616 27.3992 79.6376 24.9234 75.6323 22.7274C74.523 22.1175 73.4568 21.5362 72.4555 20.9979C72.3258 20.9262 72.2754 20.7611 72.3474 20.632C72.4195 20.5028 72.5852 20.4525 72.7148 20.5243C73.7089 21.0625 74.7823 21.651 75.8917 22.2538C79.9906 24.5 84.637 27.0404 88.5199 28.7771C88.5919 28.813 88.6495 28.8704 88.6712 28.9493C88.6928 29.0283 88.6784 29.1072 88.6351 29.1718C87.7131 30.5568 86.5028 31.052 85.1917 31.052V31.0448Z" fill="#AE8B0D"/>
<path d="M73.1182 31.906C71.1588 31.906 69.0121 30.8008 67.3912 29.9612L67.2039 29.8679C66.3827 29.5593 65.5254 29.1933 64.6898 28.8417C62.4062 27.8729 60.0434 26.8682 57.5797 26.6744C57.4284 26.6601 57.3203 26.5309 57.3275 26.3802C57.342 26.2295 57.4716 26.1219 57.6229 26.129C60.1802 26.33 62.5863 27.349 64.9059 28.3393C65.7343 28.691 66.5844 29.0498 67.4272 29.3656L67.6433 29.4732C70.1647 30.7793 73.6081 32.559 75.7332 30.2339C75.6899 30.2195 75.6035 30.1693 75.481 30.1406C73.7881 29.7029 72.297 28.7628 70.8562 27.8514C70.0782 27.3634 69.2786 26.8538 68.4574 26.4304C68.0828 26.2367 67.6938 26.0573 67.2976 25.8707C65.8352 25.1961 64.3224 24.5072 63.5012 23.0289C63.4291 22.8997 63.4796 22.7346 63.6092 22.6629C63.7389 22.5911 63.9046 22.6413 63.9766 22.7705C64.7042 24.0909 66.1378 24.744 67.5209 25.3827C67.9243 25.5693 68.3277 25.7487 68.7023 25.9496C69.5451 26.3802 70.3592 26.8969 71.1444 27.3921C72.6139 28.325 74.0043 29.2005 75.6107 29.6167C75.7476 29.6526 76.0934 29.7674 76.2302 30.0258C76.2951 30.1478 76.3095 30.2841 76.259 30.4205C76.2446 30.4564 76.2302 30.4851 76.2086 30.5066C75.3298 31.5328 74.242 31.906 73.1038 31.906H73.1182Z" fill="#AE8B0D"/>
<path d="M62.6367 14.8621C62.6367 14.8621 62.5647 14.8621 62.5287 14.8406C57.3852 12.6446 51.4637 13.0896 45.7367 13.5201C39.4838 13.9938 33.0149 14.4818 27.4463 11.5753C24.961 9.91043 22.2308 8.33163 18.9963 7.94411C12.9019 6.62366 7.00924 4.05453 1.93058 0.495062C1.80812 0.408946 1.7793 0.236713 1.86575 0.114716C1.95219 -0.00728238 2.12508 -0.0359878 2.24755 0.0501284C7.26857 3.56654 13.0892 6.11414 19.0828 7.40588C22.4109 7.80776 25.206 9.42244 27.7273 11.1089C33.1301 13.9292 39.5199 13.4484 45.6935 12.9819C51.4853 12.5441 57.4716 12.092 62.7376 14.3454C62.8745 14.4028 62.9393 14.5679 62.8817 14.7042C62.8384 14.8047 62.7376 14.8693 62.6295 14.8693L62.6367 14.8621Z" fill="#AE8B0D"/>
<path d="M77.7114 67.9264C78.3985 65.0174 76.5883 62.1044 73.6682 61.42C70.7481 60.7355 67.824 62.5389 67.1369 65.4478C66.4499 68.3568 68.2601 71.2698 71.1802 71.9542C74.1002 72.6387 77.0244 70.8353 77.7114 67.9264Z" fill="#AE8B0D"/>
<path d="M72.4267 60.0947C68.7671 60.0947 65.8064 63.0514 65.8064 66.6898C65.8064 70.3282 68.7743 73.2849 72.4267 73.2849C76.079 73.2849 79.0469 70.3282 79.0469 66.6898C79.0469 63.0514 76.079 60.0947 72.4267 60.0947ZM72.4267 72.6031C69.1561 72.6031 66.498 69.955 66.498 66.697C66.498 63.4389 69.1561 60.7908 72.4267 60.7908C75.6972 60.7908 78.3554 63.4389 78.3554 66.697C78.3554 69.955 75.6972 72.6031 72.4267 72.6031Z" fill="#AE8B0D"/>
<path d="M68.551 60.6689C68.6591 60.6689 68.7671 60.6402 68.868 60.5828C69.1633 60.4106 69.2714 60.023 69.0913 59.7288C68.9184 59.4274 68.5366 59.3269 68.234 59.4992C67.9387 59.6714 67.8378 60.0589 68.0107 60.3531C68.126 60.5541 68.3349 60.6617 68.551 60.6617V60.6689Z" fill="#AE8B0D"/>
<path d="M64.8051 65.3192C64.8555 65.3336 64.9131 65.3407 64.9635 65.3407C65.2445 65.3407 65.4966 65.1541 65.5687 64.8743C65.6551 64.5442 65.4534 64.1997 65.122 64.1136C64.7907 64.0275 64.4449 64.2284 64.3584 64.5585C64.272 64.8958 64.4737 65.2331 64.8051 65.3192Z" fill="#AE8B0D"/>
<path d="M70.4024 59.8939C70.46 59.8939 70.5104 59.8867 70.5681 59.8724C70.9066 59.7791 71.1011 59.4418 71.0147 59.1117C70.921 58.7744 70.5753 58.5806 70.2439 58.6739C69.9053 58.7672 69.7108 59.1045 69.8045 59.4346C69.8765 59.7145 70.1358 59.8939 70.4096 59.8939H70.4024Z" fill="#AE8B0D"/>
<path d="M65.3381 66.7042C65.3381 66.3597 65.0572 66.0798 64.7114 66.0798C64.3656 66.0798 64.0847 66.3597 64.0847 66.7042C64.0847 67.0486 64.3656 67.3285 64.7114 67.3285C65.0572 67.3285 65.3381 67.0486 65.3381 66.7042Z" fill="#AE8B0D"/>
<path d="M66.959 61.8961C67.1175 61.8961 67.2832 61.8387 67.4056 61.7167C67.6506 61.4727 67.6506 61.078 67.4056 60.834C67.1607 60.59 66.7645 60.59 66.5196 60.834C66.2746 61.078 66.2818 61.4727 66.5196 61.7167C66.642 61.8387 66.8005 61.8961 66.9662 61.8961H66.959Z" fill="#AE8B0D"/>
<path d="M65.4174 63.4031C65.5182 63.4605 65.6263 63.482 65.7271 63.482C65.9432 63.482 66.1522 63.3672 66.2674 63.1735C66.4403 62.8721 66.3322 62.4917 66.0369 62.3195C65.7343 62.1472 65.3525 62.2477 65.1797 62.5491C65.0068 62.8505 65.1148 63.2309 65.4102 63.4031H65.4174Z" fill="#AE8B0D"/>
<path d="M72.3978 59.6283C72.7436 59.6283 73.0245 59.3484 73.0245 59.004C73.0245 58.6595 72.7436 58.3796 72.3978 58.3796C72.052 58.3796 71.7711 58.6595 71.7711 59.004C71.7711 59.3484 72.052 59.6283 72.3978 59.6283Z" fill="#AE8B0D"/>
<path d="M77.8583 61.8602C78.0168 61.8602 78.1825 61.8028 78.3049 61.6736C78.5499 61.4296 78.5499 61.0349 78.3049 60.7909C78.06 60.5469 77.6638 60.5469 77.4189 60.7909C77.1739 61.0349 77.1739 61.4296 77.4189 61.6736C77.5413 61.7956 77.6998 61.853 77.8583 61.853V61.8602Z" fill="#AE8B0D"/>
<path d="M79.2629 64.8384C79.3349 65.1182 79.5944 65.2977 79.8681 65.2977C79.9185 65.2977 79.9761 65.2905 80.0337 65.2761C80.3723 65.1828 80.5668 64.8455 80.4731 64.5083C80.3867 64.1781 80.0409 63.9772 79.7023 64.0705C79.371 64.1638 79.1693 64.5011 79.2629 64.8384Z" fill="#AE8B0D"/>
<path d="M78.5498 63.1376C78.6651 63.3385 78.874 63.4462 79.0901 63.4462C79.1982 63.4462 79.3062 63.4175 79.4071 63.3601C79.7024 63.1878 79.8033 62.8003 79.6304 62.5061C79.4575 62.2118 79.0685 62.1114 78.7732 62.2836C78.4706 62.4558 78.3697 62.8434 78.5498 63.1376Z" fill="#AE8B0D"/>
<path d="M74.2347 59.8651C74.2851 59.8795 74.3427 59.8866 74.3932 59.8866C74.6741 59.8866 74.9262 59.7 74.9983 59.4202C75.0847 59.0829 74.8902 58.7456 74.5516 58.6595C74.2203 58.5734 73.8745 58.7743 73.788 59.1044C73.7016 59.4417 73.8961 59.779 74.2347 59.8651Z" fill="#AE8B0D"/>
<path d="M75.9493 60.5612C76.0501 60.6186 76.1582 60.6402 76.259 60.6402C76.4751 60.6402 76.6841 60.5253 76.8065 60.3316C76.9794 60.0302 76.8786 59.6498 76.576 59.4776C76.2734 59.3054 75.8916 59.413 75.7187 59.7072C75.5459 60.0015 75.6467 60.389 75.9493 60.5612Z" fill="#AE8B0D"/>
<path d="M66.289 70.235C66.1161 69.9407 65.7343 69.8331 65.4318 70.0125C65.1292 70.1847 65.0284 70.5651 65.2013 70.8665C65.3165 71.0674 65.5254 71.1751 65.7415 71.1751C65.8496 71.1751 65.9577 71.1464 66.0585 71.0889C66.3539 70.9167 66.4619 70.5364 66.2818 70.235H66.289Z" fill="#AE8B0D"/>
<path d="M79.4215 69.991C79.1189 69.8187 78.7371 69.9192 78.5642 70.2206C78.3913 70.5149 78.4922 70.9024 78.7948 71.0746C78.8956 71.132 79.0037 71.1607 79.1045 71.1607C79.3206 71.1607 79.5295 71.0459 79.6448 70.8521C79.8177 70.5507 79.7168 70.1704 79.4143 69.9982L79.4215 69.991Z" fill="#AE8B0D"/>
<path d="M65.5831 68.5342C65.4894 68.1969 65.1508 68.0031 64.8123 68.0892C64.4809 68.1825 64.2792 68.5198 64.3728 68.8571C64.4449 69.137 64.7042 69.3164 64.9779 69.3164C65.0356 69.3164 65.086 69.3092 65.1436 69.2949C65.4822 69.2016 65.6767 68.8643 65.5903 68.5342H65.5831Z" fill="#AE8B0D"/>
<path d="M80.1346 66.0368C79.7888 66.0368 79.5078 66.3167 79.5078 66.6612V66.6827C79.5078 67.0343 79.7888 67.3142 80.1346 67.3142C80.4803 67.3142 80.7613 67.0344 80.7613 66.6899V66.654C80.7613 66.3095 80.4803 66.0297 80.1346 66.0297V66.0368Z" fill="#AE8B0D"/>
<path d="M75.9709 72.8041C75.6755 72.9763 75.5675 73.3567 75.7404 73.6581C75.8556 73.859 76.0646 73.9667 76.2807 73.9667C76.3887 73.9667 76.4968 73.938 76.5904 73.8877C76.8858 73.7155 76.9938 73.328 76.8209 73.0337C76.6481 72.7323 76.2591 72.6319 75.9637 72.8041H75.9709Z" fill="#AE8B0D"/>
<path d="M80.041 68.0749C79.7025 67.9816 79.3639 68.1825 79.2774 68.5198C79.191 68.8499 79.3855 69.1944 79.7241 69.2805C79.7745 69.2948 79.8321 69.302 79.8825 69.302C80.1635 69.302 80.4156 69.1154 80.4877 68.8356C80.5741 68.5054 80.3796 68.161 80.041 68.0749Z" fill="#AE8B0D"/>
<path d="M77.4405 71.6846C77.1955 71.9286 77.1955 72.3233 77.4405 72.5673C77.5629 72.6893 77.7214 72.7539 77.8871 72.7539C78.0528 72.7539 78.2113 72.6893 78.3337 72.5673C78.5787 72.3233 78.5787 71.9286 78.3337 71.6846C78.0888 71.4406 77.6926 71.4406 77.4477 71.6846H77.4405Z" fill="#AE8B0D"/>
<path d="M68.8896 72.8113C68.587 72.6391 68.2052 72.7395 68.0323 73.0409C67.8595 73.3423 67.9603 73.7227 68.2629 73.8949C68.3637 73.9523 68.4718 73.9739 68.5726 73.9739C68.7887 73.9739 68.9977 73.859 69.1129 73.6653C69.2858 73.371 69.1777 72.9835 68.8824 72.8113H68.8896Z" fill="#AE8B0D"/>
<path d="M66.534 71.6918C66.289 71.9358 66.289 72.3305 66.534 72.5744C66.6564 72.6964 66.8149 72.7539 66.9734 72.7539C67.1319 72.7539 67.2976 72.6893 67.42 72.5673C67.665 72.3233 67.665 71.9286 67.42 71.6846C67.1751 71.4406 66.7789 71.4406 66.534 71.6846V71.6918Z" fill="#AE8B0D"/>
<path d="M70.5969 73.5145C70.2583 73.4284 69.9197 73.6222 69.8333 73.9595C69.7396 74.2896 69.9413 74.6341 70.2799 74.7202C70.3375 74.7345 70.388 74.7417 70.4384 74.7417C70.7193 74.7417 70.9715 74.5551 71.0435 74.2752C71.13 73.9451 70.9355 73.6007 70.5969 73.5145Z" fill="#AE8B0D"/>
<path d="M72.4266 73.7513C72.0808 73.7513 71.7998 74.0312 71.7998 74.3757C71.7998 74.7202 72.0808 75 72.4266 75C72.7723 75 73.0533 74.7202 73.0533 74.3757C73.0533 74.0312 72.7723 73.7513 72.4266 73.7513Z" fill="#AE8B0D"/>
<path d="M74.2635 73.5145C73.9321 73.6006 73.7304 73.9451 73.8169 74.2752C73.8889 74.5551 74.1482 74.7345 74.422 74.7345C74.4724 74.7345 74.53 74.7345 74.5877 74.713C74.919 74.6197 75.1207 74.2824 75.0271 73.9523C74.9334 73.615 74.5949 73.4212 74.2635 73.5073V73.5145Z" fill="#AE8B0D"/>
<path d="M72.1745 57.3318L72.0376 57.0232C71.3965 55.6095 71.1012 54.0594 70.813 52.5595C70.5104 50.9879 70.2007 49.3661 69.4947 47.9236C68.7743 46.4453 67.6506 45.1751 66.5628 43.9479C66.2458 43.5891 65.9361 43.2374 65.6263 42.8786C61.6786 38.2212 59.0565 32.3222 58.2352 26.2797C58.0407 24.866 57.9183 23.4236 57.7958 22.0242C57.5581 19.2972 57.3131 16.4769 56.5712 13.8073C56.4415 13.348 56.2974 12.8313 55.9949 12.4437C55.6059 11.9486 54.9359 11.6328 54.1507 11.5826C53.4447 11.5395 52.7316 11.6974 52.004 11.8768C50.5416 12.2428 49.0792 12.659 47.6529 13.1183C47.5809 13.1399 47.5016 13.104 47.48 13.0322C47.4584 12.9604 47.4944 12.8815 47.5665 12.86C49 12.3935 50.4696 11.9773 51.9391 11.6113C52.6883 11.4247 53.4231 11.2668 54.1651 11.3099C55.0296 11.3601 55.7715 11.7118 56.211 12.2715C56.5495 12.7021 56.7008 13.2475 56.8377 13.7283C57.5869 16.4194 57.8318 19.2541 58.0695 21.9955C58.192 23.3877 58.3145 24.8301 58.509 26.2367C59.323 32.2289 61.9236 38.0705 65.8352 42.692C66.1378 43.0509 66.4547 43.4025 66.7645 43.7613C67.8595 45.0028 68.9977 46.2874 69.7324 47.7944C70.4528 49.2728 70.7698 50.9161 71.0723 52.5021C71.3389 53.8728 71.6054 55.2865 72.1385 56.5855C73.0894 53.7364 73.1182 50.7152 73.147 47.7873C73.1686 45.62 73.183 43.381 73.572 41.185C74.4437 36.2405 76.965 31.3965 80.8623 27.1696C81.5754 26.3946 82.3174 25.4975 82.0509 24.5789C81.8996 24.0479 81.3665 23.6317 80.8118 23.6173C80.2571 23.5958 79.6952 23.9833 79.5151 24.5C79.4863 24.5718 79.4143 24.6077 79.3423 24.5861C79.2702 24.5574 79.2342 24.4857 79.2558 24.4139C79.4863 23.7752 80.1419 23.3159 80.819 23.3518C81.4962 23.3733 82.1301 23.8613 82.3102 24.5144C82.6128 25.5621 81.8204 26.5309 81.0568 27.3634C77.1955 31.5472 74.6958 36.3482 73.8386 41.2352C73.4568 43.4097 73.4352 45.6415 73.4208 47.7944C73.3919 50.8587 73.3631 54.0235 72.2826 57.0089L72.1673 57.3246L72.1745 57.3318Z" fill="#AE8B0D"/>
<path d="M74.1267 28.081C74.0187 28.081 73.9106 28.0667 73.8098 28.0308C73.5072 27.9232 73.2551 27.6576 73.1182 27.2916C72.9165 26.7678 72.9381 26.1434 73.183 25.4258C73.2839 25.1244 73.4208 24.8373 73.5432 24.5574C73.6585 24.2991 73.781 24.0264 73.8818 23.7609C74.206 22.8495 74.278 21.8663 74.0763 20.919C74.0619 20.8473 74.1051 20.7755 74.1844 20.7612C74.2564 20.7468 74.3284 20.7899 74.3428 20.8688C74.5518 21.8663 74.4797 22.8997 74.1411 23.8542C74.0403 24.134 73.9178 24.4067 73.7954 24.6723C73.6729 24.945 73.5432 25.232 73.4424 25.5191C73.2191 26.1721 73.1902 26.7391 73.3703 27.1912C73.4856 27.4782 73.6801 27.6935 73.9034 27.7724C74.1339 27.8514 74.4149 27.8012 74.6382 27.6433C74.8903 27.4567 75.0344 27.1768 75.1064 26.9759C75.1281 26.9041 75.2073 26.8682 75.2793 26.8898C75.3514 26.9113 75.3874 26.9902 75.3658 27.062C75.2433 27.4065 75.0488 27.6792 74.8039 27.8586C74.6022 28.0021 74.3645 28.081 74.1339 28.081H74.1267Z" fill="#AE8B0D"/>
<path d="M36.2926 40.7975C35.7019 40.7975 35.0751 40.4746 34.6501 39.922C34.2107 39.3551 34.0018 38.6518 33.8505 37.9772C33.5551 36.7142 33.3822 35.4081 33.2094 34.145C32.525 29.0498 27.9794 10.5349 27.4752 9.72393C26.6467 8.39631 25.3356 7.63562 24.3775 7.24092C22.0291 6.25776 19.2701 6.34387 16.9865 7.46338C16.9216 7.49926 16.8352 7.46338 16.8064 7.3988C16.7704 7.33421 16.8064 7.24809 16.8712 7.21939C19.2269 6.064 22.0723 5.98506 24.4928 6.99692C25.4869 7.41315 26.8484 8.19537 27.7129 9.58758C28.3324 10.5851 32.8348 29.2508 33.4831 34.1163C33.6488 35.3722 33.8289 36.6711 34.117 37.927C34.2683 38.5728 34.4628 39.2474 34.8662 39.7641C35.3057 40.3239 35.954 40.6181 36.5303 40.5105C37.0994 40.4028 37.6109 39.8933 37.8342 39.2044C38.0431 38.5585 38.0071 37.8624 37.971 37.1878C37.971 37.116 38.0287 37.0515 38.1007 37.0443C38.18 37.0371 38.2376 37.1017 38.2448 37.1735C38.2808 37.8409 38.3168 38.5944 38.0935 39.2833C37.8414 40.0655 37.2507 40.6468 36.5807 40.776C36.4871 40.7903 36.3934 40.8047 36.2998 40.8047L36.2926 40.7975Z" fill="#AE8B0D"/>
<path d="M11.3747 24.4139C10.6903 24.4139 9.99877 24.2273 9.41527 23.8614C8.06096 23.0074 7.28295 21.3209 7.03803 18.6944C6.64182 14.367 7.1749 10.0254 7.81603 5.9779C7.97452 4.96603 8.19783 3.91829 8.99025 3.30112C9.52332 2.88489 10.2004 2.76289 10.7335 2.70548C14.4867 2.28925 18.3983 4.44216 20.0336 7.82939C20.0696 7.89398 20.0336 7.9801 19.9687 8.0088C19.9039 8.04468 19.8175 8.0088 19.7886 7.94422C18.1966 4.65745 14.4002 2.56196 10.7623 2.97101C10.2653 3.02842 9.63138 3.13606 9.15593 3.51641C8.44276 4.07617 8.23385 5.05932 8.08257 6.02096C7.44864 10.0469 6.91556 14.367 7.30457 18.6657C7.53509 21.1989 8.26987 22.8208 9.55214 23.6245C10.4598 24.1986 11.6484 24.2991 12.6425 23.8901C13.6366 23.481 14.4074 22.5768 14.6452 21.529C14.6596 21.4573 14.7316 21.4142 14.8108 21.4286C14.8829 21.4429 14.9333 21.5147 14.9117 21.5936C14.6524 22.7203 13.8239 23.6963 12.7434 24.1412C12.3039 24.3206 11.8285 24.4139 11.3602 24.4139H11.3747Z" fill="#AE8B0D"/>
<path d="M23.3618 30.1622C23.0448 30.1622 22.7279 30.1048 22.4181 29.99C21.46 29.6168 20.8837 28.7341 20.5667 28.0596C19.8031 26.4305 19.7671 24.5503 19.7311 22.8854C19.7311 22.8137 19.7887 22.7491 19.868 22.7491C19.94 22.7419 20.0049 22.8065 20.0049 22.8854C20.0337 24.5216 20.0769 26.3731 20.8117 27.9519C21.107 28.5834 21.6401 29.4015 22.5118 29.746C23.7724 30.2412 25.1916 29.4948 25.984 28.5906C26.7116 27.7582 27.1654 26.6961 27.5976 25.677C27.6841 25.4689 27.7705 25.268 27.8642 25.0599C29.5354 21.2349 32.2152 17.5606 36.0476 13.8217C36.6383 13.2476 37.2363 12.7022 37.971 12.408C39.3037 11.8769 40.9606 12.329 41.8251 13.4701C41.8683 13.5275 41.8611 13.6136 41.7962 13.6638C41.7386 13.7069 41.6522 13.6997 41.6017 13.6351C40.8021 12.5945 39.2821 12.1783 38.0647 12.6663C37.3731 12.9462 36.7968 13.4701 36.2277 14.0226C32.4169 17.7328 29.766 21.3784 28.1019 25.1747C28.0154 25.3756 27.929 25.5837 27.8425 25.7847C27.4031 26.8252 26.9493 27.9089 26.1857 28.77C25.5229 29.5235 24.4496 30.1694 23.3546 30.1694L23.3618 30.1622Z" fill="#AE8B0D"/>
<path d="M86.8846 23.6532C86.6253 23.6532 86.3804 23.6317 86.1426 23.5815C84.9612 23.359 83.9383 22.706 82.8937 21.9955C82.8289 21.9524 82.8145 21.8663 82.8577 21.8089C82.9009 21.7443 82.9874 21.73 83.045 21.773C84.0607 22.462 85.0621 23.1007 86.1859 23.3159C87.2232 23.5169 88.5775 23.2801 89.2619 22.3041C89.7013 21.6797 89.7877 20.876 89.8238 20.0938C89.8526 19.3618 89.831 18.6011 89.4924 17.9624C88.9737 16.9936 87.8355 16.5702 86.9423 16.4912C85.8905 16.4051 84.8388 16.6635 83.8302 16.9218C83.7582 16.9434 83.6861 16.8931 83.6645 16.8214C83.6429 16.7496 83.6934 16.6778 83.7654 16.6563C84.8027 16.398 85.8689 16.1252 86.9711 16.2185C88.2029 16.3262 89.2619 16.9434 89.7373 17.8332C90.1047 18.5293 90.1335 19.3331 90.0975 20.1009C90.0615 20.919 89.9678 21.7659 89.4852 22.4548C88.8873 23.3088 87.8427 23.6461 86.8774 23.6461L86.8846 23.6532Z" fill="#AE8B0D"/>
<path d="M79.3927 25.0095C79.3206 25.0095 79.2486 24.9951 79.1838 24.9664C79.1117 24.9377 79.0541 24.9018 79.0037 24.8444C78.9532 24.7942 78.9172 24.7368 78.8812 24.6722C78.8524 24.6004 78.8452 24.5359 78.8452 24.4641C78.8452 24.3206 78.9028 24.177 79.0037 24.0766C79.0541 24.0263 79.1117 23.9833 79.1838 23.9546C79.3855 23.8756 79.6232 23.9187 79.7817 24.0766C79.8033 24.0981 79.8249 24.1268 79.8465 24.1555C79.8681 24.1842 79.8825 24.2129 79.8969 24.2488C79.9113 24.2847 79.9258 24.3206 79.933 24.3493C79.933 24.3852 79.9402 24.421 79.9402 24.4569C79.9402 24.6004 79.8825 24.7368 79.7817 24.8373C79.7529 24.866 79.724 24.8875 79.6952 24.909C79.6664 24.9234 79.6376 24.9449 79.6016 24.9593C79.5656 24.9736 79.5367 24.9808 79.5007 24.9951C79.4647 24.9951 79.4287 25.0095 79.3999 25.0095H79.3927Z" fill="#AE8B0D"/>
<path d="M72.6428 55.43C72.3474 55.3654 72.1601 55.0784 72.225 54.7842C72.2826 54.4899 72.5707 54.3034 72.8733 54.3679C73.1614 54.4325 73.3559 54.7196 73.2911 55.0138C73.2335 55.2722 73.0102 55.4444 72.7652 55.4444C72.7292 55.4444 72.686 55.4444 72.65 55.43H72.6428ZM73.0318 53.3202C72.7292 53.2843 72.5131 53.0188 72.5491 52.7246C72.5851 52.4231 72.8517 52.215 73.147 52.2437C73.4496 52.2796 73.6657 52.5451 73.6297 52.8394C73.5937 53.1193 73.3631 53.3274 73.0894 53.3274C73.0894 53.3274 73.0534 53.3274 73.0318 53.3274V53.3202ZM73.2191 51.1816C72.9165 51.1673 72.686 50.9233 72.6932 50.6219C72.7076 50.3205 72.9597 50.0837 73.2623 50.098C73.5649 50.1124 73.7954 50.3564 73.7882 50.6649C73.7738 50.952 73.536 51.1888 73.2407 51.1888C73.2407 51.1888 73.2263 51.1888 73.2191 51.1888V51.1816ZM73.2839 49.0359C72.9814 49.0359 72.7436 48.7919 72.7436 48.4833C72.7436 48.1819 72.9958 47.9451 73.2983 47.9451C73.6009 47.9451 73.8458 48.1963 73.8386 48.4977C73.8386 48.7991 73.5937 49.0359 73.2911 49.0359H73.2839ZM73.3055 46.8902C73.003 46.8902 72.758 46.6318 72.7652 46.3376C72.7652 46.0362 73.0246 45.7994 73.3199 45.8066C73.6225 45.8066 73.8602 46.0577 73.853 46.3591C73.853 46.6534 73.6081 46.8902 73.3055 46.8902ZM73.3559 44.7445C73.0534 44.7229 72.8301 44.4646 72.8445 44.1703C72.8589 43.8689 73.1182 43.6393 73.4208 43.6608C73.7233 43.6752 73.9539 43.9335 73.9394 44.2349C73.925 44.522 73.6801 44.7445 73.3992 44.7445H73.3631H73.3559ZM73.5144 42.5987C73.2119 42.5628 73.0102 42.2901 73.0462 41.9887C73.0822 41.6873 73.3631 41.4864 73.6585 41.5223C73.9611 41.5653 74.17 41.838 74.1267 42.1394C74.0907 42.4121 73.8602 42.6059 73.5865 42.6059C73.5865 42.6059 73.536 42.6059 73.5144 42.6059V42.5987ZM73.853 40.4817C73.5576 40.4171 73.3704 40.1229 73.4424 39.8287C73.5072 39.5344 73.8026 39.355 74.0979 39.4196C74.3933 39.4914 74.5734 39.7856 74.5085 40.0727C74.4509 40.3238 74.2276 40.4961 73.9755 40.4961C73.9395 40.4961 73.8962 40.4961 73.853 40.4817ZM74.3861 38.4077C74.0979 38.3145 73.9394 38.0059 74.0331 37.726C74.1267 37.4389 74.4293 37.2882 74.7175 37.3744C74.9984 37.4676 75.1569 37.7762 75.0632 38.0633C74.984 38.2929 74.7751 38.4365 74.5446 38.4365C74.4869 38.4365 74.4293 38.4364 74.3789 38.4077H74.3861ZM75.0921 36.384C74.8111 36.2692 74.6886 35.9463 74.8039 35.6736C74.9264 35.3937 75.2433 35.2645 75.5171 35.3865C75.798 35.5013 75.9277 35.8243 75.8052 36.097C75.7188 36.3051 75.5171 36.4271 75.301 36.4271C75.2289 36.4271 75.1569 36.4127 75.0849 36.384H75.0921ZM75.9709 34.4249C75.7044 34.2885 75.5963 33.9584 75.7332 33.6929C75.8773 33.4274 76.2014 33.3197 76.468 33.4632C76.7345 33.5996 76.8354 33.9297 76.7057 34.1952C76.6048 34.3818 76.4175 34.4823 76.223 34.4823C76.1366 34.4823 76.0574 34.4679 75.9709 34.4249ZM76.9938 32.5447C76.7345 32.3868 76.6625 32.0495 76.821 31.7912C76.9794 31.5328 77.3108 31.4539 77.5701 31.6189C77.8295 31.7768 77.9087 32.1069 77.7502 32.3653C77.6494 32.5303 77.4693 32.6236 77.2892 32.6236C77.1883 32.6236 77.0947 32.5949 77.001 32.5447H76.9938ZM78.1609 30.7362C77.9159 30.564 77.8583 30.2195 78.0384 29.9755C78.2113 29.7315 78.5499 29.6741 78.7948 29.8535C79.0397 30.0329 79.0973 30.3702 78.9173 30.6142C78.8164 30.7578 78.6435 30.8439 78.4778 30.8439C78.3698 30.8439 78.2545 30.808 78.1609 30.7434V30.7362ZM79.4431 29.0211C79.2054 28.8273 79.1766 28.4829 79.3639 28.2532C79.5584 28.0164 79.9042 27.9877 80.1347 28.1743C80.3724 28.368 80.4012 28.7125 80.2139 28.9421C80.1059 29.0713 79.9474 29.1359 79.7889 29.1359C79.6664 29.1359 79.5512 29.1 79.4431 29.0139V29.0211ZM80.8479 27.3921C80.6245 27.1911 80.6029 26.8466 80.7974 26.6242C80.9991 26.3945 81.3449 26.373 81.5682 26.5739C81.7988 26.7677 81.8204 27.1193 81.6259 27.3418C81.525 27.4638 81.3665 27.5284 81.2153 27.5284C81.0928 27.5284 80.9559 27.4853 80.8551 27.3921H80.8479ZM82.1806 25.6769C81.878 25.641 81.6619 25.3755 81.6979 25.0741C81.7339 24.7799 82.0005 24.5646 82.303 24.5933C82.6056 24.6292 82.8145 24.8947 82.7857 25.1889C82.7569 25.4688 82.5191 25.6697 82.2454 25.6697H82.1878L82.1806 25.6769ZM80.9847 24.0407C80.6966 23.9618 80.5237 23.6675 80.5957 23.3805C80.675 23.0934 80.9631 22.9212 81.2585 22.993C81.5466 23.0719 81.7195 23.3661 81.6475 23.6532C81.5898 23.8972 81.3665 24.0551 81.1216 24.0551C81.0712 24.0551 81.028 24.0551 80.9775 24.0407H80.9847Z" fill="#AE8B0D"/>
<path d="M72.1601 57.5112C72.016 57.5112 71.8791 57.4538 71.7783 57.3533C71.7207 57.3031 71.6846 57.2457 71.6558 57.1811C71.627 57.1093 71.6198 57.0375 71.6198 56.9658C71.6198 56.8223 71.6774 56.6859 71.7783 56.5854C71.9224 56.4347 72.1745 56.3845 72.3762 56.4634C72.441 56.4921 72.4987 56.528 72.5491 56.5854C72.65 56.6859 72.7076 56.8223 72.7076 56.9658C72.7076 57.0375 72.7004 57.1093 72.6716 57.1811C72.6427 57.2457 72.5995 57.3031 72.5491 57.3533C72.4987 57.4035 72.441 57.4466 72.3762 57.4753C72.3042 57.504 72.2393 57.5112 72.1601 57.5112Z" fill="#AE8B0D"/>
<path d="M70.921 55.021C70.8417 54.7339 71.0219 54.4325 71.3173 54.3608C71.6054 54.289 71.908 54.4612 71.98 54.7555C72.0521 55.0497 71.8792 55.3439 71.5838 55.4157C71.5334 55.43 71.4902 55.43 71.4469 55.43C71.202 55.43 70.9858 55.265 70.921 55.021ZM70.4456 52.8322C70.388 52.538 70.5825 52.2509 70.8851 52.1935C71.1804 52.1361 71.4614 52.3299 71.5262 52.6241C71.5838 52.9183 71.3893 53.2054 71.0868 53.2628C71.0868 53.2628 71.0219 53.2771 70.9859 53.2771C70.7266 53.2771 70.496 53.0977 70.4456 52.8394V52.8322ZM70.0062 50.6937C69.9342 50.4066 70.1142 50.1124 70.4096 50.0406C70.705 49.9689 71.0003 50.1554 71.0651 50.4425C71.1372 50.7367 70.957 51.0309 70.6616 51.1027C70.6184 51.1027 70.5825 51.1171 70.5393 51.1171C70.2943 51.1171 70.071 50.952 70.0062 50.7008V50.6937ZM69.3795 48.6699C69.2642 48.3901 69.4011 48.0743 69.682 47.9595C69.963 47.8447 70.2799 47.981 70.388 48.2609C70.5033 48.5408 70.3664 48.8565 70.0854 48.9642C70.0206 48.9929 69.9486 49.0072 69.8765 49.0072C69.6604 49.0072 69.4587 48.878 69.3723 48.6628L69.3795 48.6699ZM68.3853 46.84C68.2197 46.5888 68.2845 46.2515 68.5294 46.0864C68.7816 45.9214 69.12 45.986 69.2857 46.23C69.4514 46.4811 69.3867 46.8184 69.1417 46.9835C69.0481 47.0409 68.9472 47.0768 68.8392 47.0768C68.6591 47.0768 68.4862 46.9978 68.3853 46.84ZM67.0671 45.1463C66.8726 44.9167 66.9014 44.5722 67.1247 44.3785C67.3552 44.1847 67.701 44.2134 67.8955 44.4359C68.09 44.6655 68.0612 45.01 67.8379 45.2038C67.737 45.2899 67.6073 45.3329 67.4849 45.3329C67.3336 45.3329 67.1823 45.2683 67.0671 45.1392V45.1463ZM65.6119 43.4886C65.4174 43.259 65.4462 42.9145 65.6695 42.7207C65.8928 42.527 66.2458 42.5557 66.4403 42.7782C66.6348 43.0078 66.606 43.3523 66.3827 43.546C66.2818 43.6393 66.1522 43.6824 66.0297 43.6824C65.8784 43.6824 65.7272 43.6178 65.6119 43.4886ZM64.1999 41.7519C64.0198 41.5151 64.0703 41.1706 64.308 40.9912C64.5457 40.8118 64.8915 40.8621 65.0716 41.0989C65.2517 41.3357 65.2013 41.6802 64.9636 41.8596C64.8627 41.9313 64.7473 41.9672 64.6393 41.9672C64.4736 41.9672 64.3151 41.8883 64.1999 41.7519ZM62.9105 39.922C62.7448 39.6708 62.8168 39.3335 63.069 39.1684C63.3211 38.9962 63.6597 39.068 63.8254 39.3263C63.991 39.5775 63.919 39.9148 63.6669 40.0798C63.5732 40.1373 63.4724 40.166 63.3715 40.166C63.1914 40.166 63.0185 40.0798 62.9105 39.922ZM61.7507 38.0059C61.6066 37.7475 61.6931 37.4102 61.9596 37.2667C62.2189 37.1232 62.5575 37.2165 62.7016 37.482C62.8457 37.7404 62.7592 38.0776 62.4927 38.2212C62.4062 38.2642 62.3198 38.2929 62.2261 38.2929C62.0316 38.2929 61.8515 38.1925 61.7507 38.0131V38.0059ZM60.7205 36.018C60.5981 35.7453 60.7061 35.4224 60.9799 35.2932C61.2536 35.164 61.5778 35.2789 61.7075 35.5516C61.8371 35.8243 61.7219 36.1472 61.4481 36.2764C61.3689 36.3123 61.2968 36.3266 61.2176 36.3266C61.0087 36.3266 60.8142 36.2118 60.7205 36.018ZM59.8345 33.9656C59.7192 33.6857 59.8561 33.37 60.137 33.2623C60.418 33.1475 60.7349 33.291 60.843 33.5637C60.9511 33.8436 60.807 34.1594 60.5332 34.2742C60.4684 34.3029 60.4036 34.3101 60.3387 34.3101C60.1226 34.3101 59.9137 34.1809 59.8345 33.9584V33.9656ZM59.0781 31.8557C58.9844 31.5759 59.1429 31.2601 59.4311 31.174C59.712 31.0807 60.029 31.2386 60.1154 31.5256C60.2091 31.8055 60.0506 32.1213 59.7624 32.2074C59.7048 32.2289 59.6544 32.2361 59.5968 32.2361C59.3662 32.2361 59.1501 32.0926 59.0781 31.8557ZM58.4658 29.7028C58.3937 29.4086 58.5738 29.1144 58.8692 29.0426C59.1645 28.9709 59.4599 29.1503 59.5319 29.4373C59.604 29.7316 59.4239 30.0258 59.1285 30.0975C59.0853 30.1119 59.0421 30.1119 59.006 30.1119C58.7539 30.1119 58.5306 29.9468 58.473 29.6957L58.4658 29.7028ZM58.0047 27.5141C57.9543 27.2127 58.156 26.9328 58.4514 26.8825C58.7539 26.8323 59.0277 27.0261 59.0853 27.3275C59.1357 27.6217 58.9412 27.9016 58.6387 27.9518C58.6387 27.9518 58.581 27.9662 58.545 27.9662C58.2857 27.9662 58.0551 27.7796 58.0047 27.5141ZM57.7022 25.3037C57.6661 25.0023 57.8823 24.7296 58.1848 24.7009C58.4874 24.665 58.7539 24.8803 58.7827 25.1817C58.8187 25.4832 58.6026 25.7487 58.3001 25.7846H58.2424C57.9687 25.7846 57.7382 25.5836 57.7022 25.3037ZM57.4788 23.0934C57.4572 22.792 57.6734 22.5337 57.9759 22.505C58.2785 22.4763 58.545 22.6987 58.5738 22.993C58.6026 23.2944 58.3793 23.5599 58.0768 23.5886H58.0263C57.7454 23.5886 57.5077 23.3733 57.4788 23.0934ZM57.2843 20.9046C57.2555 20.6032 57.4788 20.3377 57.7814 20.309C58.084 20.2803 58.3433 20.5028 58.3721 20.8042C58.4009 21.1056 58.1776 21.3639 57.8823 21.3926C57.8823 21.3926 57.8462 21.3926 57.8318 21.3926C57.5509 21.3926 57.3132 21.1773 57.2843 20.8975V20.9046ZM57.0682 18.723C57.0322 18.4216 57.2411 18.1561 57.5437 18.1202C57.8462 18.0843 58.12 18.2996 58.1488 18.601C58.1848 18.9024 57.9687 19.168 57.6733 19.2039C57.6733 19.2039 57.6301 19.2039 57.6085 19.2039C57.3348 19.2039 57.1043 18.9957 57.0682 18.723ZM56.7657 16.5701C56.708 16.2759 56.9097 15.996 57.2123 15.9458C57.5077 15.8956 57.7886 16.0893 57.839 16.3907C57.8895 16.685 57.695 16.9648 57.3924 17.0151C57.3924 17.0151 57.3348 17.0151 57.2988 17.0151C57.0394 17.0151 56.8089 16.8285 56.7657 16.563V16.5701ZM56.3262 14.4603C56.247 14.1661 56.4271 13.8718 56.7225 13.8001C57.0106 13.7211 57.3132 13.9005 57.3852 14.1948C57.4644 14.489 57.2843 14.7832 56.989 14.855C56.9458 14.8693 56.9025 14.8693 56.8521 14.8693C56.6144 14.8693 56.3911 14.7043 56.3262 14.4603ZM49.2161 12.5155C49.1369 12.2284 49.3026 11.9199 49.5907 11.8409C49.8789 11.762 50.1814 11.927 50.2607 12.2141C50.3471 12.5011 50.1814 12.8026 49.8861 12.8815C49.8357 12.8958 49.7852 12.903 49.7348 12.903C49.4971 12.903 49.281 12.7523 49.2089 12.5083L49.2161 12.5155ZM55.6275 12.6518C55.433 12.4222 55.4546 12.0777 55.6851 11.884C55.9156 11.683 56.2614 11.7117 56.4559 11.9342C56.6504 12.1639 56.6288 12.5083 56.4055 12.7021C56.3046 12.7954 56.1678 12.8384 56.0453 12.8384C55.894 12.8384 55.7427 12.7738 55.6275 12.6518ZM51.3484 11.9199C51.2764 11.6328 51.4565 11.3314 51.7447 11.2596C52.04 11.1879 52.3354 11.3601 52.4074 11.6543C52.4866 11.9414 52.3065 12.2356 52.0112 12.3146C51.968 12.3289 51.9247 12.3289 51.8815 12.3289C51.6366 12.3289 51.4133 12.1639 51.3484 11.9127V11.9199ZM54.0427 11.9988C53.7401 11.9844 53.5096 11.7404 53.5168 11.439C53.5312 11.1376 53.7761 10.9008 54.0787 10.9152C54.3812 10.9295 54.619 11.1735 54.6045 11.4821C54.5901 11.7763 54.3452 12.006 54.0571 12.006H54.0355L54.0427 11.9988Z" fill="#AE8B0D"/>
<path d="M47.6096 13.5489C47.5375 13.5489 47.4655 13.5346 47.4007 13.5059C47.3358 13.4772 47.2782 13.4341 47.2278 13.3839C47.1701 13.3336 47.1341 13.2762 47.1053 13.2116C47.0765 13.1399 47.0621 13.0753 47.0621 13.0035C47.0621 12.86 47.1197 12.7165 47.2278 12.616C47.2782 12.5658 47.3358 12.5227 47.4007 12.494C47.6024 12.4151 47.8401 12.4581 47.9986 12.616C48.0994 12.7165 48.1571 12.8528 48.1571 13.0035C48.1571 13.0753 48.1427 13.1399 48.121 13.2116C48.0922 13.2762 48.049 13.3336 47.9986 13.3839C47.8977 13.4843 47.7609 13.5489 47.6096 13.5489Z" fill="#AE8B0D"/>
<path d="M75.2289 27.5572C75.0848 27.5572 74.948 27.4998 74.8399 27.3993C74.7391 27.2988 74.6814 27.1553 74.6814 27.0118C74.6814 26.8683 74.7391 26.7319 74.8399 26.6243C74.9912 26.4807 75.2361 26.4305 75.4378 26.5094C75.5027 26.5381 75.5603 26.574 75.6179 26.6243C75.6395 26.653 75.6611 26.6817 75.6827 26.7032C75.7044 26.7391 75.7188 26.7678 75.7332 26.8037C75.7476 26.8396 75.762 26.8683 75.7692 26.9041C75.7692 26.94 75.7836 26.9759 75.7836 27.0118C75.7836 27.0477 75.7836 27.0836 75.7692 27.1123C75.7692 27.1481 75.7548 27.184 75.7332 27.2127C75.7188 27.2486 75.7044 27.2773 75.6827 27.3132C75.6611 27.3419 75.6395 27.3706 75.6179 27.3921C75.5171 27.4926 75.373 27.55 75.2289 27.55V27.5572Z" fill="#AE8B0D"/>
<path d="M73.0101 27.9303C72.8229 27.6935 72.8661 27.3562 73.0966 27.1696C73.3343 26.9759 73.6729 27.0189 73.8602 27.2558C74.0547 27.4926 74.0115 27.8299 73.7738 28.0164C73.6729 28.0954 73.5576 28.1384 73.4352 28.1384C73.2767 28.1384 73.1182 28.0667 73.0101 27.9303ZM73.1542 25.8779C72.8733 25.7774 72.722 25.4617 72.8301 25.1818C72.9381 24.9019 73.2479 24.7512 73.536 24.8589C73.817 24.9593 73.961 25.2751 73.8602 25.555C73.781 25.7703 73.572 25.9066 73.3487 25.9066C73.2911 25.9066 73.2263 25.8922 73.1614 25.8707L73.1542 25.8779ZM74.0619 23.7322C73.7665 23.6676 73.5793 23.3734 73.6441 23.0863C73.7089 22.7921 73.9971 22.6055 74.2924 22.6772C74.5878 22.7418 74.7751 23.0361 74.703 23.3231C74.6454 23.5815 74.4221 23.7465 74.17 23.7465C74.1339 23.7465 74.0907 23.7465 74.0475 23.7322H74.0619Z" fill="#AE8B0D"/>
<path d="M74.1987 21.4214C74.1266 21.4214 74.0546 21.407 73.9898 21.3855C73.9249 21.3568 73.8673 21.3137 73.8097 21.2635C73.7592 21.2133 73.7233 21.1559 73.6945 21.0913C73.6657 21.0195 73.6512 20.9549 73.6512 20.876C73.6512 20.7325 73.7088 20.5961 73.8097 20.4956C73.8673 20.4382 73.9249 20.4023 73.9898 20.3736C74.1915 20.2947 74.4292 20.3378 74.5877 20.4956C74.6885 20.5961 74.7462 20.7325 74.7462 20.876C74.7462 20.9549 74.7317 21.0195 74.7029 21.0913C74.6741 21.1559 74.6381 21.2133 74.5877 21.2635C74.5372 21.3137 74.4796 21.3568 74.4076 21.3855C74.3427 21.4142 74.2707 21.4214 74.1987 21.4214Z" fill="#AE8B0D"/>
<path d="M38.1006 37.7189C37.9566 37.7189 37.8125 37.6615 37.7116 37.561C37.6612 37.5108 37.618 37.4534 37.5892 37.3888C37.5604 37.3242 37.5532 37.2524 37.5532 37.1807C37.5532 37.0371 37.6108 36.8936 37.7116 36.7931C37.8341 36.6711 38.0214 36.6066 38.2015 36.6424C38.2375 36.6568 38.2735 36.664 38.3023 36.6783C38.3384 36.6927 38.3672 36.7142 38.396 36.7286C38.432 36.7501 38.4536 36.7716 38.4752 36.8003C38.5761 36.9008 38.6409 37.0371 38.6409 37.1878C38.6409 37.2596 38.6265 37.3314 38.5977 37.396C38.5689 37.4605 38.5329 37.518 38.4752 37.5682C38.3744 37.6687 38.2375 37.7261 38.0934 37.7261L38.1006 37.7189Z" fill="#AE8B0D"/>
<path d="M35.8963 40.7042C35.8602 40.4028 36.0836 40.1373 36.3861 40.1086C36.6887 40.0727 36.948 40.2951 36.984 40.5894C37.0201 40.8908 36.7967 41.1563 36.5014 41.185H36.4437C36.1628 41.185 35.9251 40.9769 35.8963 40.697V40.7042ZM34.1962 39.9866C34.0305 39.7354 34.0953 39.3981 34.3402 39.2331C34.5924 39.068 34.931 39.1326 35.0966 39.3766C35.2623 39.6277 35.1975 39.965 34.9526 40.1301C34.8517 40.1875 34.7509 40.2234 34.65 40.2234C34.4771 40.2234 34.3042 40.1373 34.1962 39.9866ZM37.7692 39.8C37.4811 39.6995 37.3298 39.3909 37.4307 39.1111C37.5315 38.8312 37.8341 38.6733 38.1222 38.7738C38.4032 38.8742 38.5617 39.1828 38.4608 39.4627C38.3816 39.6923 38.1727 39.8359 37.9421 39.8359C37.8845 39.8359 37.8197 39.8215 37.7692 39.8ZM33.3894 37.7978C33.3245 37.5035 33.5118 37.2165 33.8072 37.1519C34.1025 37.0873 34.3907 37.2739 34.4555 37.5681C34.5131 37.8624 34.333 38.1494 34.0377 38.214C34.0017 38.214 33.9585 38.2284 33.9224 38.2284C33.6703 38.2284 33.4398 38.0561 33.3894 37.7978ZM33.0076 35.6592C32.9643 35.3578 33.1732 35.0851 33.4686 35.0421C33.7639 35.0062 34.0449 35.2071 34.0881 35.5014C34.1313 35.7956 33.9224 36.0755 33.6271 36.1185C33.6271 36.1185 33.5694 36.1329 33.5478 36.1329C33.2813 36.1329 33.0508 35.9391 33.0076 35.6664V35.6592ZM32.705 33.5494C32.6618 33.248 32.8635 32.9753 33.1588 32.925C33.4614 32.882 33.7351 33.0829 33.7856 33.3771C33.836 33.6786 33.6271 33.9513 33.3317 34.0015C33.3317 34.0015 33.2741 34.0015 33.2453 34.0015C32.9859 34.0015 32.7482 33.8077 32.705 33.5422V33.5494ZM32.3304 31.4611C32.2728 31.1597 32.4673 30.8798 32.7626 30.8224C33.0652 30.765 33.3461 30.9587 33.4038 31.253C33.4614 31.5472 33.2669 31.8271 32.9643 31.8916C32.9643 31.8916 32.8995 31.906 32.8635 31.906C32.6041 31.906 32.3808 31.7266 32.3304 31.4682V31.4611ZM31.9126 29.3656C31.8477 29.0713 32.035 28.7843 32.3304 28.7269C32.6258 28.6695 32.9139 28.8489 32.9787 29.1503C33.0364 29.4445 32.8491 29.7316 32.5537 29.789C32.5177 29.789 32.4745 29.8033 32.4385 29.8033C32.1863 29.8033 31.963 29.6311 31.9054 29.3656H31.9126ZM31.4659 27.2844C31.4011 26.9902 31.5884 26.696 31.8838 26.6386C32.1791 26.574 32.4673 26.7606 32.5321 27.0548C32.5969 27.349 32.4096 27.6361 32.1143 27.7007C32.0783 27.715 32.035 27.715 31.9918 27.715C31.7397 27.715 31.5164 27.5428 31.4587 27.2916L31.4659 27.2844ZM31.0049 25.1961C30.9401 24.9019 31.1202 24.6148 31.4155 24.5502C31.7109 24.4785 32.0062 24.6651 32.0711 24.9593C32.1359 25.2535 31.9486 25.5478 31.6532 25.6123C31.6172 25.6123 31.574 25.6267 31.5308 25.6267C31.2859 25.6267 31.0553 25.4616 30.9977 25.2033L31.0049 25.1961ZM30.5295 23.115C30.4646 22.8207 30.6519 22.5337 30.9473 22.4619C31.2354 22.3973 31.5308 22.5767 31.5956 22.871C31.6677 23.1652 31.4804 23.4594 31.185 23.524C31.149 23.5384 31.1058 23.5384 31.0625 23.5384C30.8104 23.5384 30.5871 23.3661 30.5367 23.115H30.5295ZM30.0396 21.041C29.9676 20.7468 30.1549 20.4525 30.4502 20.3808C30.7384 20.3162 31.0337 20.4956 31.1058 20.7898C31.1778 21.0769 30.9905 21.3711 30.6951 21.4429C30.6591 21.4572 30.6159 21.4572 30.5727 21.4572C30.3205 21.4572 30.0972 21.2922 30.0396 21.041ZM29.5425 18.9599C29.4705 18.6728 29.6506 18.3786 29.946 18.3068C30.2413 18.2351 30.5367 18.4145 30.6087 18.7087C30.6735 18.9958 30.5006 19.29 30.2053 19.3617C30.1621 19.3761 30.1188 19.3761 30.0756 19.3761C29.8307 19.3761 29.6074 19.2039 29.5497 18.9599H29.5425ZM29.0383 16.8859C28.9662 16.5917 29.1463 16.2974 29.4345 16.2257C29.7298 16.1467 30.0252 16.3262 30.0972 16.6204C30.1693 16.9074 29.9964 17.2088 29.701 17.2806C29.6578 17.295 29.6146 17.295 29.5714 17.295C29.3264 17.295 29.1031 17.1299 29.0383 16.8787V16.8859ZM28.5196 14.8119C28.4476 14.5177 28.6205 14.2235 28.9158 14.1517C29.204 14.08 29.5065 14.2522 29.5786 14.5464C29.6578 14.8335 29.4777 15.1349 29.1824 15.2066C29.1391 15.221 29.0959 15.221 29.0455 15.221C28.8078 15.221 28.5844 15.0559 28.5196 14.8119ZM27.9793 12.7452C27.9001 12.4581 28.073 12.1567 28.3683 12.0849C28.6565 12.006 28.959 12.1782 29.0311 12.4725C29.1103 12.7595 28.9374 13.0609 28.6421 13.1327C28.5989 13.147 28.5484 13.147 28.498 13.147C28.2603 13.147 28.037 12.9891 27.9721 12.7452H27.9793ZM27.403 10.6999C27.3094 10.4128 27.4751 10.1043 27.7632 10.0181C28.0514 9.93203 28.3611 10.0971 28.4476 10.3841C28.534 10.6712 28.3683 10.9798 28.0802 11.0659C28.0298 11.0802 27.9793 11.0874 27.9217 11.0874C27.684 11.0874 27.4679 10.9367 27.3958 10.6999H27.403ZM26.4809 9.09239C26.272 8.8771 26.2792 8.53264 26.4954 8.32452C26.7115 8.10923 27.0572 8.11641 27.2662 8.3317C27.4823 8.54699 27.4679 8.89146 27.2517 9.09957C27.1437 9.20004 27.0068 9.25745 26.8699 9.25745C26.7259 9.25745 26.589 9.20004 26.4737 9.09239H26.4809ZM24.9033 7.92265C24.644 7.77912 24.5359 7.44901 24.6872 7.18349C24.8313 6.92514 25.1555 6.82467 25.422 6.96819C25.6885 7.11172 25.7894 7.44183 25.6453 7.70018C25.5445 7.88677 25.3572 7.98724 25.1627 7.98724C25.0762 7.98724 24.9826 7.96571 24.9033 7.92265ZM23.0375 7.21219C22.7422 7.13325 22.5693 6.83902 22.6413 6.55197C22.7134 6.26491 23.0159 6.0855 23.3041 6.15727C23.5994 6.22903 23.7723 6.52326 23.7003 6.81749C23.6427 7.06149 23.4193 7.23372 23.1744 7.23372C23.1312 7.23372 23.088 7.23372 23.0447 7.21937L23.0375 7.21219ZM18.3839 6.7529C18.3191 6.45867 18.5064 6.17162 18.8017 6.10703C19.0971 6.03527 19.3852 6.22185 19.4501 6.51608C19.5149 6.81031 19.3348 7.10454 19.0395 7.16913C18.9962 7.16913 18.9602 7.18349 18.917 7.18349C18.6721 7.18349 18.4487 7.01125 18.3839 6.76008V6.7529ZM21.0349 6.95384C20.7323 6.95384 20.4946 6.70267 20.4946 6.40126C20.4946 6.09986 20.7467 5.86304 21.0493 5.86304C21.3519 5.86304 21.5896 6.11421 21.5824 6.41562C21.5824 6.71702 21.3375 6.95384 21.0349 6.95384Z" fill="#AE8B0D"/>
<path d="M16.9216 7.87239C16.7775 7.87239 16.6406 7.81498 16.5398 7.71451C16.4389 7.61404 16.3741 7.47769 16.3741 7.32699C16.3741 7.17628 16.4317 7.04711 16.5398 6.94664C16.6838 6.79594 16.936 6.7457 17.1377 6.82464C17.2025 6.85335 17.2601 6.88923 17.3106 6.94664C17.4114 7.04711 17.469 7.18346 17.469 7.32699C17.469 7.47051 17.4114 7.60686 17.3106 7.71451C17.2097 7.81498 17.0728 7.87239 16.9216 7.87239Z" fill="#AE8B0D"/>
<path d="M14.7892 22.1174C14.7172 22.1174 14.6452 22.1031 14.5803 22.0744C14.5083 22.0457 14.4507 22.0098 14.4002 21.9524C14.3498 21.9021 14.3066 21.8447 14.2778 21.7801C14.249 21.7155 14.2418 21.6438 14.2418 21.5648C14.2418 21.4213 14.2994 21.285 14.4002 21.1845C14.4507 21.1343 14.5083 21.0912 14.5803 21.0625C14.6812 21.0266 14.7892 21.0123 14.8901 21.0266C14.9261 21.041 14.9621 21.0481 14.9909 21.0625C15.027 21.0769 15.0558 21.0984 15.0846 21.1127C15.1206 21.1343 15.1422 21.1558 15.171 21.1845C15.2719 21.285 15.3295 21.4213 15.3295 21.5648C15.3295 21.6438 15.3151 21.7084 15.2863 21.7801C15.2575 21.8447 15.2215 21.9021 15.171 21.9524C15.1422 21.9811 15.1134 22.0026 15.0846 22.0241C15.0558 22.0385 15.027 22.06 14.9909 22.0744C14.9549 22.0887 14.9261 22.0959 14.8901 22.1102C14.8541 22.1102 14.8181 22.1246 14.7892 22.1246V22.1174Z" fill="#AE8B0D"/>
<path d="M11.2163 24.3206C11.1875 24.0192 11.4036 23.7537 11.6989 23.725C12.0015 23.6891 12.268 23.9044 12.2968 24.2058C12.3328 24.5072 12.1095 24.7799 11.8142 24.8086H11.7565C11.4756 24.8086 11.2451 24.6005 11.2091 24.3278L11.2163 24.3206ZM9.40812 24.335C9.14879 24.1914 9.04793 23.8613 9.19201 23.5958C9.33608 23.3375 9.66746 23.237 9.934 23.3805C10.1933 23.524 10.2942 23.8541 10.1501 24.1197C10.0493 24.2991 9.86197 24.3996 9.66747 24.3996C9.58102 24.3996 9.48736 24.378 9.40812 24.335ZM13.2982 23.7609C13.0964 23.5384 13.1109 23.1939 13.3342 22.993C13.5575 22.7921 13.9033 22.8064 14.105 23.0289C14.3139 23.2513 14.2923 23.5958 14.069 23.7967C13.9681 23.89 13.8312 23.9403 13.7016 23.9403C13.5575 23.9403 13.4062 23.8829 13.2982 23.7609ZM7.70083 22.627C7.54955 22.3686 7.636 22.0314 7.89533 21.8807C8.15467 21.7299 8.49324 21.8232 8.64452 22.0744C8.7886 22.3328 8.70215 22.6701 8.45002 22.8208C8.36358 22.871 8.26993 22.8997 8.17628 22.8997C7.98898 22.8997 7.80889 22.7992 7.70083 22.627ZM6.90121 20.4597C6.83638 20.1655 7.02368 19.8785 7.31903 19.8139C7.61438 19.7493 7.90254 19.9359 7.96737 20.2301C8.0322 20.5243 7.8449 20.8114 7.54955 20.876C7.50633 20.8903 7.47031 20.8903 7.42709 20.8903C7.17496 20.8903 6.95164 20.7181 6.89401 20.4669L6.90121 20.4597ZM6.59865 18.2494C6.57704 17.948 6.80036 17.6897 7.10292 17.661C7.40548 17.6394 7.66481 17.8619 7.68642 18.1633C7.71524 18.4647 7.48472 18.7231 7.18216 18.7446H7.13894C6.85799 18.7446 6.62027 18.5293 6.59865 18.2422V18.2494ZM6.505 16.0606C6.505 15.7592 6.74273 15.5081 7.04529 15.5081C7.34785 15.5081 7.59277 15.7449 7.59998 16.0391C7.59998 16.3405 7.36225 16.5917 7.0597 16.5917C6.75714 16.5917 6.51221 16.3549 6.51221 16.0606H6.505ZM7.0597 14.4388C6.75714 14.4244 6.52662 14.1804 6.53382 13.8719C6.54823 13.5704 6.80036 13.3408 7.10292 13.3552C7.40548 13.3695 7.636 13.6207 7.62879 13.9221C7.61438 14.2091 7.36946 14.446 7.08131 14.446C7.08131 14.446 7.0669 14.446 7.0597 14.446V14.4388ZM7.17496 12.2931C6.8724 12.2643 6.64908 12.006 6.6779 11.7046C6.70671 11.4032 6.97325 11.1807 7.27581 11.2094C7.57116 11.2381 7.79448 11.4965 7.76566 11.7979C7.73685 12.0778 7.49912 12.2931 7.21818 12.2931H7.16775H7.17496ZM7.38386 10.1473C7.08131 10.1114 6.8724 9.83875 6.90842 9.54452C6.94443 9.24311 7.21097 9.02782 7.51353 9.0637C7.81609 9.09958 8.025 9.37228 7.98898 9.66651C7.95296 9.94639 7.72244 10.1473 7.4487 10.1473C7.4487 10.1473 7.40548 10.1473 7.38386 10.1473ZM7.65761 8.00878C7.35505 7.96572 7.15334 7.68584 7.19657 7.39161C7.23259 7.09738 7.51353 6.88927 7.81609 6.93233C8.11144 6.97538 8.32035 7.25526 8.27713 7.54949C8.24111 7.82219 8.00339 8.01595 7.73685 8.01595C7.73685 8.01595 7.68642 8.01595 7.65761 8.01595V8.00878ZM18.312 6.42998C18.1175 6.20034 18.1463 5.85587 18.3768 5.66211C18.6073 5.46835 18.9531 5.49706 19.1404 5.71952C19.3349 5.95634 19.3061 6.29363 19.0756 6.49457C18.9747 6.57351 18.8451 6.61657 18.7226 6.61657C18.5713 6.61657 18.42 6.55198 18.3048 6.4228L18.312 6.42998ZM7.96737 5.8774C7.67202 5.81282 7.48472 5.52576 7.54235 5.23153C7.60718 4.9373 7.89533 4.75072 8.19069 4.8153C8.48604 4.87271 8.67334 5.16694 8.6085 5.454C8.55087 5.71235 8.32756 5.89176 8.07543 5.89176C8.03941 5.89176 7.99618 5.89175 7.96737 5.8774ZM16.828 5.0593C16.5831 4.87989 16.5254 4.5426 16.7055 4.29861C16.8856 4.06179 17.2242 4.00438 17.4691 4.18378C17.7069 4.35602 17.7645 4.70048 17.5844 4.9373C17.4835 5.08083 17.3106 5.15977 17.145 5.15977C17.0297 5.15977 16.9144 5.12389 16.8208 5.0593H16.828ZM15.0631 4.05461C14.7821 3.93261 14.6597 3.61685 14.7821 3.33698C14.9046 3.0571 15.2216 2.9351 15.4953 3.0571C15.7762 3.1791 15.8987 3.49486 15.7835 3.77473C15.6898 3.97567 15.4881 4.09767 15.2792 4.09767C15.1999 4.09767 15.1351 4.08332 15.0631 4.05461ZM8.61572 3.81061C8.42122 3.58097 8.45002 3.23651 8.68054 3.04275C8.91827 2.84898 9.25684 2.87769 9.45134 3.10733C9.64585 3.33698 9.61703 3.68144 9.38651 3.8752C9.28566 3.96132 9.156 4.00438 9.03354 4.00438C8.88226 4.00438 8.73098 3.93979 8.61572 3.81061ZM13.1181 3.46615C12.8227 3.41592 12.621 3.13604 12.6786 2.83463C12.7363 2.5404 13.0172 2.34664 13.3126 2.39687C13.6079 2.45429 13.8096 2.73416 13.752 3.02839C13.7016 3.29392 13.471 3.4805 13.2117 3.4805C13.2117 3.4805 13.1541 3.4805 13.1181 3.46615ZM10.5175 2.85616C10.4959 2.55475 10.7192 2.29641 11.0218 2.27488C11.3243 2.25335 11.5837 2.47581 11.6053 2.77722C11.6269 3.07863 11.3964 3.33698 11.101 3.3585H11.065C10.784 3.3585 10.5391 3.14321 10.5175 2.85616Z" fill="#AE8B0D"/>
<path d="M19.9111 8.43932C19.8391 8.43932 19.767 8.42496 19.7022 8.39626C19.6374 8.36755 19.5797 8.33167 19.5293 8.28144C19.4284 8.18097 19.3636 8.03744 19.3636 7.89391C19.3636 7.85803 19.3636 7.82215 19.378 7.78627C19.3924 7.75039 19.3996 7.72168 19.414 7.6858C19.4284 7.64992 19.4501 7.62121 19.4645 7.58533C19.4861 7.55662 19.5077 7.52792 19.5365 7.50639C19.5869 7.45616 19.6446 7.42027 19.7094 7.39157C19.8463 7.33416 19.9903 7.33416 20.1272 7.39157C20.192 7.42027 20.2497 7.45616 20.3001 7.50639C20.3289 7.5351 20.3505 7.5638 20.3721 7.58533C20.3865 7.62121 20.4082 7.64992 20.4226 7.6858C20.437 7.72168 20.4442 7.75039 20.4514 7.78627C20.4658 7.82215 20.4658 7.85803 20.4658 7.89391C20.4658 8.03744 20.4082 8.17379 20.3073 8.28144C20.2569 8.33167 20.1992 8.36755 20.1344 8.39626C20.0624 8.42496 19.9975 8.43932 19.9183 8.43932H19.9111Z" fill="#AE8B0D"/>
<path d="M19.8751 23.4236C19.731 23.4236 19.5941 23.3662 19.4861 23.2585C19.3852 23.1581 19.3276 23.0217 19.3276 22.8782C19.3276 22.7347 19.3852 22.5983 19.4861 22.4907C19.6878 22.2897 20.0552 22.2897 20.2569 22.4907C20.3577 22.5911 20.4226 22.7275 20.4226 22.8782C20.4226 23.0289 20.3649 23.1581 20.2569 23.2585C20.156 23.359 20.0192 23.4236 19.8751 23.4236Z" fill="#AE8B0D"/>
<path d="M23.088 30.5641C22.7854 30.5354 22.5621 30.2698 22.5909 29.9684C22.6197 29.667 22.8791 29.4445 23.1888 29.4733C23.4842 29.502 23.7075 29.7675 23.6787 30.0689C23.6499 30.3488 23.4193 30.5641 23.1384 30.5641H23.088ZM24.7016 29.7603C24.5359 29.502 24.6152 29.1647 24.8673 29.0068C25.1266 28.8417 25.458 28.9207 25.6237 29.1719C25.7822 29.423 25.7101 29.7603 25.458 29.9254C25.3644 29.9828 25.2635 30.0043 25.1699 30.0043C24.9826 30.0043 24.8097 29.9182 24.7088 29.7531L24.7016 29.7603ZM20.898 29.3441C20.7035 29.1144 20.7323 28.77 20.9701 28.5834C21.2006 28.3896 21.5464 28.4183 21.7409 28.6552C21.9354 28.8848 21.8994 29.2293 21.6688 29.4158C21.568 29.502 21.4383 29.545 21.3231 29.545C21.1646 29.545 21.0133 29.4733 20.9052 29.3441H20.898ZM26.3441 28.3968C26.0847 28.2389 26.0127 27.9016 26.1784 27.6433C26.3441 27.3921 26.6827 27.3204 26.9348 27.4782C27.1941 27.6361 27.2662 27.9734 27.1005 28.2317C26.9996 28.3968 26.8195 28.4829 26.6394 28.4829C26.5386 28.4829 26.4377 28.4542 26.3513 28.3968H26.3441ZM19.8247 27.2701C19.7382 26.9831 19.8967 26.6745 20.1849 26.5884C20.473 26.4951 20.7828 26.6601 20.8692 26.9472C20.9557 27.2342 20.7972 27.5428 20.509 27.6289C20.4514 27.6433 20.401 27.6505 20.3505 27.6505C20.1128 27.6505 19.8967 27.5069 19.8247 27.2701ZM27.3742 26.531C27.1005 26.4161 26.9708 26.0932 27.0933 25.8205C27.2085 25.5478 27.5327 25.4186 27.8064 25.5406C28.0802 25.6554 28.2099 25.9784 28.0946 26.2511C28.0081 26.4592 27.8064 26.574 27.5975 26.574C27.5183 26.574 27.4535 26.5597 27.3814 26.531H27.3742ZM19.4141 25.0598C19.3852 24.7584 19.6086 24.4929 19.9111 24.4642C20.2137 24.4355 20.473 24.6579 20.509 24.9593C20.5306 25.2607 20.3145 25.5263 20.012 25.555H19.9615C19.6806 25.555 19.4429 25.3397 19.4141 25.0598ZM28.2171 24.5718C27.9433 24.4426 27.8353 24.1125 27.9649 23.8398C28.0946 23.5671 28.426 23.4595 28.6925 23.5887C28.9662 23.7178 29.0815 24.0479 28.9518 24.3135C28.851 24.5072 28.6637 24.622 28.462 24.622C28.3827 24.622 28.2963 24.6005 28.2243 24.5646L28.2171 24.5718ZM29.1896 22.6701C28.9302 22.5194 28.8438 22.1893 28.9951 21.9237C29.1463 21.6654 29.4777 21.5721 29.7443 21.73C30.0036 21.8807 30.0972 22.2108 29.9388 22.4763C29.8379 22.6485 29.6578 22.749 29.4633 22.749C29.3697 22.749 29.276 22.7203 29.1896 22.6701ZM30.3061 20.8473C30.054 20.6822 29.9892 20.3378 30.1621 20.0938C30.3278 19.8426 30.6663 19.778 30.9185 19.9502C31.1634 20.1153 31.2282 20.4526 31.0625 20.7038C30.9617 20.8545 30.7888 20.9406 30.6087 20.9406C30.5079 20.9406 30.3998 20.9047 30.3061 20.8473ZM31.5308 19.0963C31.2931 18.9097 31.2426 18.5724 31.4299 18.3356C31.6172 18.0987 31.963 18.0557 32.1935 18.2351C32.4313 18.4217 32.4745 18.759 32.2944 19.003C32.1863 19.1393 32.0206 19.2183 31.855 19.2183C31.7397 19.2183 31.6244 19.1824 31.5308 19.1034V19.0963ZM32.8563 17.4242C32.6258 17.2304 32.5969 16.8859 32.7986 16.6563C32.9931 16.4267 33.3389 16.398 33.5695 16.5989C33.8 16.7927 33.8288 17.1371 33.6271 17.3668C33.519 17.4888 33.3677 17.5605 33.2093 17.5605C33.0868 17.5605 32.9571 17.5175 32.8563 17.4313V17.4242ZM34.2682 15.8167C34.0521 15.6086 34.0377 15.2641 34.2466 15.0488C34.4555 14.8335 34.8013 14.8192 35.0174 15.0273C35.2335 15.2354 35.2479 15.5798 35.039 15.7951C34.9382 15.91 34.7869 15.9602 34.6428 15.9602C34.5131 15.9602 34.3763 15.91 34.2682 15.8167ZM35.7522 14.2809C35.5433 14.0656 35.5433 13.7284 35.7666 13.5131C35.9827 13.2978 36.3285 13.3049 36.5374 13.5274C36.7535 13.7427 36.7463 14.0872 36.5374 14.2953C36.4293 14.3958 36.2925 14.4532 36.1556 14.4532C36.0115 14.4532 35.8747 14.3958 35.7594 14.2881L35.7522 14.2809ZM37.3442 12.8385C37.2146 12.5658 37.3298 12.2428 37.6036 12.1137C37.8773 11.9845 38.2015 12.0993 38.3311 12.372C38.4608 12.6447 38.3455 12.9677 38.0718 13.104C37.9926 13.1399 37.9133 13.1542 37.8341 13.1542C37.6252 13.1542 37.4379 13.0394 37.3442 12.8457V12.8385ZM39.8007 12.939C39.5054 12.8672 39.3253 12.573 39.3973 12.2787C39.4693 11.9917 39.7647 11.8051 40.06 11.884C40.3482 11.9486 40.5283 12.2428 40.4563 12.5371C40.3986 12.7882 40.1753 12.9533 39.9304 12.9533C39.8872 12.9533 39.8511 12.9533 39.8079 12.939H39.8007Z" fill="#AE8B0D"/>
<path d="M41.7241 14.0872C41.6881 14.0872 41.6521 14.0872 41.6161 14.0728C41.58 14.0728 41.544 14.0585 41.5152 14.0441C41.4792 14.0298 41.4504 14.0082 41.4216 13.9867C41.3927 13.9723 41.3639 13.9508 41.3423 13.9221C41.2919 13.8719 41.2487 13.8145 41.2199 13.7499C41.191 13.6781 41.1838 13.6135 41.1838 13.5346C41.1838 13.4628 41.1982 13.3911 41.2199 13.3265C41.2487 13.2619 41.2919 13.2045 41.3423 13.1542C41.3639 13.1255 41.3999 13.104 41.4216 13.0825C41.4504 13.0681 41.4792 13.0466 41.5152 13.0322C41.5512 13.0179 41.5872 13.0107 41.6161 12.9964C41.6881 12.982 41.7601 12.982 41.8322 12.9964C41.8682 13.0107 41.9042 13.0107 41.933 13.0322C41.969 13.0466 41.9979 13.0681 42.0267 13.0825C42.0627 13.104 42.0843 13.1255 42.1059 13.1542C42.1635 13.2045 42.1996 13.2619 42.2284 13.3265C42.2572 13.3911 42.2716 13.4628 42.2716 13.5346C42.2716 13.6135 42.2572 13.6781 42.2284 13.7499C42.1996 13.8145 42.1635 13.8719 42.1059 13.9221C42.0843 13.9508 42.0555 13.9723 42.0267 13.9867C41.9979 14.0082 41.969 14.0226 41.933 14.0441C41.897 14.0585 41.8682 14.0656 41.8322 14.0728C41.7962 14.0872 41.7601 14.0872 41.7313 14.0872H41.7241Z" fill="#AE8B0D"/>
<path d="M83.8014 17.3308C83.6573 17.3308 83.5204 17.2734 83.4124 17.173C83.362 17.1227 83.3187 17.0653 83.2899 17.0007C83.2611 16.929 83.2539 16.8572 83.2539 16.7854C83.2539 16.6419 83.3115 16.5056 83.4124 16.4051C83.6141 16.2042 83.9815 16.2042 84.1832 16.4051C84.284 16.5056 84.3489 16.6419 84.3489 16.7854C84.3489 16.929 84.2912 17.0653 84.1832 17.173C84.0823 17.2734 83.9455 17.3308 83.8014 17.3308Z" fill="#AE8B0D"/>
<path d="M86.5965 23.5455C86.5749 23.2441 86.8054 22.9858 87.1007 22.9642C87.4033 22.9499 87.6626 23.1795 87.6842 23.4738C87.6987 23.7752 87.4681 24.0263 87.1728 24.0479H87.1368C86.8486 24.0479 86.6109 23.8326 86.5893 23.5455H86.5965ZM84.7163 23.5455C84.4353 23.4235 84.3201 23.1006 84.4353 22.8279C84.5578 22.548 84.882 22.4332 85.1629 22.5552C85.4367 22.6772 85.5591 23.0001 85.4367 23.2728C85.343 23.4738 85.1485 23.5958 84.9396 23.5958C84.8604 23.5958 84.7883 23.5814 84.7163 23.5455ZM88.808 23.0217C88.5919 22.8207 88.5703 22.4691 88.7792 22.2538C88.9809 22.0313 89.3339 22.017 89.55 22.2251C89.7733 22.426 89.7877 22.7705 89.586 22.993C89.478 23.1078 89.3267 23.1652 89.1826 23.1652C89.053 23.1652 88.9161 23.115 88.808 23.0217ZM89.8958 21.0769C89.5932 21.0482 89.3699 20.7898 89.3987 20.4884C89.4276 20.187 89.6869 19.9645 89.9894 19.9861C90.292 20.0148 90.5153 20.2731 90.4937 20.5745C90.4721 20.8616 90.2344 21.0769 89.9462 21.0769H89.903H89.8958ZM89.2691 18.4647C89.1682 18.1776 89.3267 17.869 89.6149 17.7757C89.8958 17.6753 90.2128 17.8332 90.3064 18.1202C90.4001 18.4001 90.2488 18.7159 89.9606 18.802C89.903 18.8235 89.8454 18.8378 89.7877 18.8378C89.5572 18.8378 89.3483 18.6943 89.2691 18.4719V18.4647ZM88.0444 17.1873C87.7635 17.0653 87.6482 16.7424 87.7707 16.4697C87.8932 16.197 88.2173 16.075 88.4911 16.197C88.7648 16.319 88.8873 16.6419 88.7648 16.9146C88.6712 17.1155 88.4767 17.2375 88.2677 17.2375C88.1885 17.2375 88.1165 17.2232 88.0444 17.1873ZM85.4943 16.4051C85.4727 16.1037 85.696 15.8453 85.9986 15.8238C86.3011 15.7951 86.5605 16.0175 86.5821 16.319C86.6109 16.6204 86.3876 16.8787 86.085 16.9074H86.0418C85.7608 16.9074 85.5159 16.6921 85.4943 16.4051Z" fill="#AE8B0D"/>
<path d="M82.9657 22.4332C82.8936 22.4332 82.8216 22.4188 82.7567 22.3901C82.6919 22.3614 82.6343 22.3256 82.5839 22.2681C82.483 22.1677 82.4182 22.0313 82.4182 21.8878C82.4182 21.7443 82.4758 21.6079 82.5839 21.5003C82.6343 21.45 82.6919 21.407 82.7567 21.3783C82.9585 21.2993 83.1962 21.3424 83.3547 21.5003C83.4555 21.6007 83.5131 21.7371 83.5131 21.8878C83.5131 22.0385 83.4555 22.1677 83.3547 22.2681C83.2538 22.3686 83.1169 22.4332 82.9657 22.4332Z" fill="#AE8B0D"/>
</g>
</g>
<defs>
<clipPath id="clip0_47_73">
<rect width="98" height="75" fill="white"/>
</clipPath>
</defs>
</svg>
