<svg width="118" height="72" viewBox="0 0 118 72" fill="none" xmlns="http://www.w3.org/2000/svg">
<mask id="mask0_47_150" style="mask-type:luminance" maskUnits="userSpaceOnUse" x="0" y="0" width="118" height="72">
<path d="M11.5119 8.10805e-05L0 42.963L105.643 71.2701L117.155 28.3071L11.5119 8.10805e-05Z" fill="white"/>
</mask>
<g mask="url(#mask0_47_150)">
<path d="M108.248 35.0468C108.221 35.1474 108.144 35.2345 108.028 35.265C97.8623 37.909 91.4677 39.2685 87.2924 39.6747C86.2476 39.7798 85.2125 39.4177 84.4453 38.6884C82.6637 37.0019 80.6712 35.4129 78.7409 33.8791C74.7487 30.6992 70.6177 27.405 68.0554 22.9986C67.6533 22.2285 66.5719 20.5448 64.9912 21.184C64.0977 21.4144 62.6728 21.5872 61.0275 21.7778C56.7098 22.2844 50.2134 23.0467 49.553 25.5114C49.5453 25.5401 49.5376 25.5689 49.5299 25.5976C48.7538 28.6089 48.0093 31.6749 47.3286 34.704C47.184 35.3585 47.0707 35.9827 47.315 36.4795C48.7692 37.7779 49.2668 39.6287 49.7472 41.4286C50.177 43.0148 50.5759 44.5157 51.5813 45.6784C53.4703 45.2681 54.4925 41.568 54.0234 36.7367C54.003 36.5541 54.0401 36.3869 54.0734 36.2341C54.0888 36.1766 54.1022 36.1263 54.1105 36.0669C54.3191 34.7134 54.9363 33.531 55.4377 32.5794C55.734 32.0196 55.9694 31.5435 56.0825 31.1503C56.3592 30.1462 57.5267 30.0431 58.9146 29.9221C59.8922 29.8375 60.9964 29.7406 61.8878 29.3171C62.0388 29.242 62.2218 29.3065 62.2949 29.4647C62.37 29.6157 62.2983 29.7968 62.1473 29.8718C61.1524 30.3369 59.9921 30.4419 58.9675 30.5293C57.8236 30.631 56.8296 30.7189 56.6775 31.2866C56.6736 31.301 56.6679 31.3225 56.6621 31.3441C56.5446 31.7824 56.2781 32.2886 55.976 32.87C55.5024 33.7751 54.9006 34.9 54.717 36.1601C54.7069 36.2267 54.6876 36.2985 54.6775 36.3651C54.6467 36.4801 54.6269 36.5826 54.6345 36.6694C55.1612 42.1477 53.9088 46.0171 51.5058 46.3051C51.4099 46.318 51.3112 46.2838 51.2457 46.2123C50.0564 44.931 49.596 43.2288 49.1581 41.5865C48.6705 39.7847 48.2192 38.0772 46.8693 36.9068C46.8444 36.8848 46.8214 36.8555 46.8004 36.8191C46.4293 36.1343 46.5602 35.3299 46.7336 34.5677C47.4182 31.5242 48.1555 28.4563 48.9368 25.4541C48.9464 25.4182 48.958 25.3751 48.9676 25.3392C49.732 22.4865 56.2121 21.7275 60.9602 21.1668C62.5892 20.9794 63.9906 20.8081 64.8007 20.6016C66.2016 20.0297 67.5999 20.7894 68.591 22.6954C71.083 26.9906 75.1714 30.2425 79.1191 33.3874C81.0547 34.9303 83.0596 36.5304 84.8608 38.2299C85.5003 38.8325 86.3668 39.134 87.229 39.0492C91.3735 38.6426 97.7427 37.2917 107.876 34.6543C108.041 34.6138 108.207 34.7122 108.25 34.8699C108.267 34.9208 108.261 34.973 108.247 35.0233L108.248 35.0468Z" fill="#AE8B0D"/>
<path d="M78.0479 53.1938C78.0479 53.1938 78.0441 53.2081 78.0421 53.2153C77.9835 53.3767 77.8142 53.4623 77.6528 53.4037C75.3546 52.6107 72.7479 51.7043 70.9585 49.7307C70.055 48.7339 69.4292 47.5342 68.8149 46.2914C67.4224 43.4692 65.971 40.1768 66.4015 36.7879C66.4171 36.615 66.5777 36.504 66.7416 36.5248C66.9126 36.5475 67.0255 36.701 67.0047 36.8648C66.5969 40.0826 68.0067 43.2715 69.3591 46.0136C69.9543 47.2128 70.5538 48.3669 71.4095 49.3125C73.0926 51.1651 75.6222 52.0432 77.8486 52.8169C78.0028 52.8736 78.0831 53.0337 78.0427 53.1846L78.0479 53.1938Z" fill="#AE8B0D"/>
<path d="M65.9434 20.7923C65.926 20.857 65.8871 20.9159 65.8305 20.9546C65.6953 21.057 65.5027 21.0285 65.4003 20.8933C64.9343 20.2755 64.5418 19.4695 64.1652 18.6908C63.1241 16.5404 62.137 14.5045 59.547 15.605C58.3591 15.9568 55.8669 16.2902 53.4543 16.6141C51.3363 16.9015 49.148 17.1931 47.9631 17.4763C47.4032 17.6113 46.7927 17.6479 46.1965 17.6884C44.8887 17.7693 43.6513 17.8459 42.9112 18.8259C41.9046 22.2375 41.4789 25.982 41.0644 29.5984C40.9928 30.2108 40.923 30.8159 40.8533 31.4211C41.8426 33.65 42.9503 36.2419 43.6879 38.9502C44.333 40.3939 45.215 41.8162 46.0706 43.193C46.5168 43.9133 46.986 44.6628 47.4154 45.4171C47.605 45.6296 48.1012 45.416 48.305 45.3166C49.1695 44.8782 49.8602 43.9389 49.7715 43.5223C49.731 43.3574 49.8366 43.1932 50.0015 43.1527C50.1664 43.1121 50.3306 43.2178 50.3712 43.3827C50.5767 44.2541 49.4655 45.4119 48.5899 45.8628C47.8927 46.2228 47.2871 46.1837 46.9205 45.7697C46.4629 44.9771 45.9989 44.2366 45.5527 43.5163C44.6865 42.1213 43.7922 40.6879 43.1159 39.159C42.3645 36.4161 41.2496 33.8223 40.2675 31.5953C40.2431 31.5425 40.2351 31.4864 40.2414 31.4342C40.3169 30.8075 40.3871 30.1717 40.4645 29.5378C40.8834 25.8763 41.324 22.1051 42.3518 18.6144C42.3614 18.5785 42.3763 18.5517 42.4003 18.5196C43.3075 17.2609 44.8338 17.1692 46.1742 17.0817C46.7704 17.0412 47.334 17.0074 47.8358 16.8877C49.0462 16.5959 51.2508 16.3009 53.385 16.0102C55.7742 15.6877 58.2429 15.3557 59.3527 15.0369C62.446 13.7248 63.6563 16.2209 64.7271 18.4332C65.109 19.221 65.4718 19.9651 65.9044 20.5354C65.9608 20.6122 65.9808 20.7099 65.9558 20.8034L65.9434 20.7923Z" fill="#AE8B0D"/>
<path d="M60.5074 15.1538C60.4901 15.2185 60.4493 15.2845 60.3927 15.3233C60.2574 15.4257 60.0667 15.39 59.9643 15.2547L58.8325 13.673C58.7215 13.5123 58.6033 13.3497 58.4568 13.2643C58.2834 13.1639 58.0544 13.1564 57.8038 13.1432C54.4045 13.0102 51.4026 12.4292 48.8645 11.4103C45.38 10.0145 41.7808 8.7882 38.1636 7.77277C37.7109 7.65147 37.3085 7.54365 36.9476 7.65487C36.7299 7.71978 36.5237 7.85706 36.3228 8.00346C34.6935 9.16883 33.2398 10.6277 31.8302 12.0368C30.0959 13.767 28.3063 15.5595 26.1642 16.857C25.9072 17.0114 25.7067 17.1272 25.5776 17.2928C25.4524 17.4441 25.3711 17.6611 25.2957 17.8565C23.9662 21.5821 22.2417 29.9152 22.2391 30.4998C22.2823 30.8271 22.697 31.0615 23.0454 31.0547C26.3165 30.9762 29.3873 27.6787 32.1571 21.2507C32.3541 20.8029 32.4122 20.6721 32.4712 20.5955C32.6464 20.3729 33.0092 19.9387 33.2347 19.7296C33.8838 19.1179 34.6766 18.5448 35.4511 17.9822C36.2056 17.4373 36.9873 16.8766 37.6071 16.288C37.9151 16.0008 38.2985 15.6337 38.797 15.4977C39.6871 15.2511 40.4848 15.7806 41.1935 16.24C41.3257 16.3216 41.4487 16.4085 41.5756 16.481C42.4418 17.0135 43.3881 17.19 44.077 17.3207L44.2389 17.3487C44.408 17.3786 44.519 17.5393 44.4819 17.7065C44.4539 17.8684 44.2913 17.9866 44.1241 17.9495L43.9694 17.9234C43.2733 17.7908 42.2226 17.6017 41.2582 17.0044C41.1261 16.9228 40.9939 16.8412 40.8637 16.7524C40.2336 16.3448 39.5857 15.917 38.9621 16.0888C38.605 16.1856 38.3042 16.4747 38.0273 16.7317C37.3783 17.3434 36.5855 17.9165 35.8109 18.4791C35.0565 19.024 34.2747 19.5847 33.6549 20.1733C33.4606 20.3523 33.1218 20.7544 32.9557 20.9718C32.9298 21.0111 32.8284 21.2458 32.7232 21.4948C29.852 28.1575 26.6004 31.5837 23.0657 31.6686C22.4538 31.6817 21.7264 31.2635 21.6371 30.5618C21.5816 30.108 23.3635 21.4745 24.7271 17.6502C24.818 17.3973 24.9199 17.132 25.1133 16.8988C25.3177 16.6532 25.5839 16.4935 25.8136 16.3548C27.9283 15.0731 29.6958 13.3056 31.399 11.6055C32.8287 10.1787 34.3026 8.7021 35.9702 7.5085C36.2095 7.33388 36.4723 7.15785 36.7897 7.06575C37.3409 6.9054 37.921 7.06854 38.3431 7.18932C41.9818 8.21053 45.6098 9.44449 49.1086 10.8442C51.5767 11.8366 54.514 12.4003 57.8376 12.5284C58.1423 12.5408 58.4849 12.5556 58.7852 12.7284C59.0442 12.8826 59.2064 13.1109 59.3528 13.3118L60.4847 14.8936C60.5412 14.9703 60.554 15.0662 60.5309 15.1524L60.5074 15.1538Z" fill="#AE8B0D"/>
<path d="M32.8868 10.9105C32.8464 11.0614 32.7059 11.1547 32.5492 11.1358L23.1159 9.80959C22.5074 9.72357 21.8251 9.62547 21.2369 9.83753C20.9138 9.9512 20.6198 10.1574 20.3167 10.3689C20.1651 10.4746 20.0136 10.5803 19.8548 10.6841C17.9074 11.8874 10.4457 12.7454 9.27359 12.8086C9.08573 12.8199 8.74068 12.843 8.6715 12.9862C8.63017 13.0829 8.68508 13.2517 8.84199 13.4709C9.58782 14.5102 10.7066 15.3645 12.3752 16.1504C13.1736 16.5338 13.8408 16.7742 14.4717 16.9202C15.232 17.1008 16.0289 17.1448 16.7682 17.1735C18.1947 17.2246 19.8643 17.2021 21.3802 16.661L21.6362 16.5679C22.0374 16.4213 22.4497 16.2622 22.8992 16.2517C23.549 16.241 23.9916 16.4289 24.4538 16.6297C24.6813 16.7292 24.9231 16.8325 25.2067 16.9239C25.3701 16.9754 25.4614 17.1231 25.4042 17.308C25.3527 17.4713 25.1834 17.5569 25.0201 17.5054C24.7078 17.4063 24.4391 17.2881 24.2116 17.1887C23.769 17.0008 23.4251 16.847 22.9124 16.8636C22.564 16.8704 22.2136 16.9999 21.8521 17.1417L21.587 17.2401C19.9766 17.8176 18.2367 17.8442 16.7488 17.7921C15.9788 17.7629 15.146 17.7092 14.3335 17.5223C13.6595 17.3648 12.9582 17.1076 12.1115 16.7036C10.3481 15.8691 9.15458 14.9486 8.34704 13.8234C8.04373 13.4033 7.97422 13.0304 8.12027 12.7153C8.34654 12.2445 8.91011 12.2107 9.23886 12.1909C10.7724 12.1012 17.8013 11.2198 19.5354 10.1518C19.6831 10.0605 19.8255 9.95996 19.968 9.8595C20.2984 9.63227 20.6327 9.39068 21.032 9.25123C21.7564 8.99094 22.5575 9.10547 23.2038 9.19393L32.6371 10.5202C32.8082 10.5429 32.9211 10.6964 32.8984 10.8674C32.8945 10.8818 32.8926 10.889 32.8887 10.9034L32.8868 10.9105Z" fill="#AE8B0D"/>
<path d="M109.639 56.3599C109.61 56.4677 109.525 56.5529 109.402 56.5815C99.4854 58.6685 89.2247 60.8327 78.9186 59.573L78.6791 59.5473C77.7175 59.4283 76.7271 59.3016 75.8049 59.5243C75.4516 59.6067 75.1155 59.74 74.7632 59.8767C74.5652 59.9545 74.36 60.0305 74.162 60.1083C71.8024 60.924 69.2458 60.5778 66.981 60.2636C64.2175 59.8851 61.3638 59.4979 58.6315 58.6579C57.1073 58.1956 55.72 57.4234 54.37 56.6843C53.1345 56.0066 51.8597 55.3031 50.496 54.8453C48.9976 54.3437 47.5868 53.5729 46.2225 52.8299C44.4952 51.8896 42.7089 50.9104 40.7864 50.5262C39.5743 50.2784 38.3059 50.2697 37.0772 50.2562C36.5703 50.2513 36.0724 50.2411 35.5692 50.2218C34.1284 50.1669 32.0135 49.9545 30.3837 48.7939C30.093 48.5851 29.8297 48.3605 29.5665 48.1359C29.2409 47.8561 28.9279 47.5874 28.5778 47.3704C27.5885 46.7511 26.3591 46.568 25.1676 46.3873L25.0129 46.3613C23.1103 46.0748 20.9683 45.6472 19.5939 44.1083C19.0077 43.4506 18.5288 42.4212 18.9487 41.4863C19.151 41.0476 19.5136 40.7289 19.8355 40.4763C21.2595 39.3869 23.146 38.6986 25.2916 38.4802C27.7066 38.234 30.1242 38.5814 32.468 38.9168C33.1574 39.0168 33.8704 39.1154 34.5495 39.3975C35.0352 39.5969 35.4671 39.8821 35.8885 40.149C36.2366 40.3732 36.5579 40.5825 36.9123 40.7545C38.099 41.3267 39.5236 41.3849 40.7805 41.4367L44.865 41.5993C45.0327 41.6057 45.1638 41.7487 45.1574 41.9164C45.1509 42.0841 45.008 42.2152 44.8403 42.2088L40.7558 42.0462C39.4376 41.9934 37.9445 41.9322 36.6413 41.3058C36.2601 41.1189 35.8976 40.8908 35.5515 40.6595C35.1373 40.3944 34.7446 40.1352 34.3145 39.9583C33.7125 39.7046 33.0355 39.6156 32.3839 39.518C30.0779 39.1851 27.6962 38.8473 25.3608 39.0841C23.3254 39.2935 21.5497 39.9421 20.2135 40.9626C19.9429 41.1674 19.6537 41.4134 19.5129 41.7376C19.2112 42.4038 19.6199 43.2065 20.0501 43.6991C21.2881 45.086 23.306 45.488 25.0989 45.7528L25.2536 45.7788C26.5046 45.9677 27.8025 46.1538 28.9024 46.8489C29.2845 47.09 29.6297 47.3827 29.9624 47.6644C30.2256 47.8889 30.4693 48.1006 30.735 48.2873C32.2365 49.3519 34.2254 49.546 35.5959 49.6051C36.0918 49.6225 36.5897 49.6327 37.0895 49.6357C38.3488 49.6497 39.646 49.6661 40.9174 49.922C42.9334 50.3313 44.7608 51.3292 46.5274 52.2955C47.8721 53.0255 49.2542 53.7886 50.7041 54.2695C52.1182 54.7408 53.4198 55.4593 54.6821 56.1518C55.9981 56.8741 57.3605 57.6242 58.8253 58.0783C61.5093 58.8976 64.3394 59.2863 67.0814 59.659C69.2724 59.9611 71.7624 60.2972 73.9787 59.5278C74.1747 59.4571 74.3636 59.3845 74.5616 59.3066C74.9231 59.1648 75.2937 59.0176 75.6887 58.9232C76.7178 58.6753 77.7604 58.8083 78.7814 58.9355L79.019 58.9684C89.2278 60.2174 99.4305 58.0685 109.3 55.9843C109.463 55.9509 109.627 56.0565 109.661 56.2195C109.671 56.2684 109.666 56.3134 109.653 56.3637L109.639 56.3599Z" fill="#AE8B0D"/>
<path d="M42.092 21.51L42.0901 21.5172C42.0458 21.6824 41.8746 21.7752 41.7113 21.7237C38.8424 20.8472 36.9556 20.2723 33.9625 19.917C33.7914 19.8943 33.6766 19.748 33.6921 19.575C33.7129 19.4111 33.8611 19.2891 34.0341 19.3047C37.0775 19.6734 38.9859 20.2541 41.8783 21.1292C42.0364 21.1716 42.1291 21.3428 42.0868 21.5009L42.092 21.51Z" fill="#AE8B0D"/>
<path d="M96.6765 63.8922C95.0381 63.4532 94.0722 61.7696 94.5093 60.1384C94.7403 59.2761 95.3238 58.593 96.0594 58.2048C95.4563 57.5811 95.1282 56.7076 95.2251 55.7709C95.3149 54.8323 95.83 54.0307 96.5619 53.5414C95.8874 52.9833 95.4576 52.1441 95.4482 51.202C95.4368 50.2671 95.8643 49.419 96.5234 48.8562C95.8042 48.3786 95.2814 47.5992 95.1618 46.6661C95.0546 45.744 95.369 44.8579 95.9482 44.2198C95.1733 43.835 94.5699 43.1265 94.3414 42.2258C94.113 41.3252 94.3014 40.4207 94.7896 39.7197C93.9767 39.448 93.2869 38.8319 92.9386 37.9761C92.2955 36.4098 93.0437 34.6233 94.6029 33.9782C96.1692 33.3351 97.9576 34.0762 98.606 35.6516C99.0169 36.6474 98.8632 37.7383 98.2881 38.5623C99.2337 38.885 100.009 39.6704 100.277 40.7124C100.544 41.7545 100.24 42.8051 99.565 43.5408C100.456 43.9798 101.116 44.8499 101.246 45.9167C101.376 46.9836 100.948 47.9779 100.19 48.622C101.015 49.1664 101.566 50.0995 101.573 51.1643C101.581 52.2291 101.036 53.1691 100.226 53.7221C100.98 54.3555 101.431 55.3466 101.317 56.4021C101.207 57.4739 100.557 58.3472 99.678 58.8124C100.394 59.5589 100.717 60.6543 100.43 61.7249C99.9912 63.3633 98.3076 64.3292 96.6765 63.8922Z" fill="#AE8B0D"/>
<path d="M105.246 60.7972C104.982 61.7817 103.973 62.3584 102.995 62.0965C102.018 61.8347 101.434 60.8233 101.696 59.8461C101.731 59.7167 105.005 46.9779 99.3367 35.2236C98.8955 34.3121 99.2749 33.2123 100.195 32.7658C101.107 32.3246 102.214 32.706 102.653 33.6246C108.93 46.6433 105.407 60.2243 105.253 60.7991L105.246 60.7972Z" fill="#AE8B0D"/>
<path d="M54.55 22.8149C53.7586 20.6235 52.7893 18.4923 51.6541 16.463C51.5403 16.2554 51.6403 15.9972 51.8599 15.9251L54.7707 14.9491C55.0756 14.846 55.4092 14.7506 55.6956 14.8889C55.8513 14.9691 55.968 15.1082 56.0776 15.2454C57.5312 17.1213 58.4346 19.412 58.6421 21.7703" fill="#AE8B0D"/>
<path d="M29.5137 12.9795C29.92 12.6417 30.2296 12.147 30.6661 11.8404C30.7793 11.7629 30.9547 11.7406 31.0705 11.8256C33.3778 13.4758 35.1514 15.422 37.0112 17.3913C37.1672 17.5564 37.0771 17.9789 36.9101 18.1421C36.6223 18.4116 36.2505 18.7355 35.9073 18.8669C35.762 18.9204 35.602 18.8852 35.4847 18.7768C33.5691 17.0159 31.6732 15.1524 29.5374 13.6097C29.3181 13.4508 29.3017 13.1384 29.5084 12.9704L29.5137 12.9795Z" fill="#AE8B0D"/>
</g>
</svg>
